AtkinsonHyperlegibleMono-ExtraLight.sfdir
StartChar: percent
Encoding: 37 37 332
Width: 632
GlyphClass: 1
Flags: W
LayerCount: 2
Fore
SplineSet
90 400 m 128,-1,1
 56 420 56 420 36 455 c 128,-1,2
 16 490 16 490 16 531 c 256,3,4
 16 572 16 572 36 607 c 128,-1,5
 56 642 56 642 90 662 c 128,-1,6
 124 682 124 682 166 682 c 256,7,8
 208 682 208 682 242 662 c 128,-1,9
 276 642 276 642 296 607 c 128,-1,10
 316 572 316 572 316 531 c 256,11,12
 316 490 316 490 296 455 c 128,-1,13
 276 420 276 420 242 400 c 128,-1,14
 208 380 208 380 166 380 c 256,15,0
 124 380 124 380 90 400 c 128,-1,1
236.5 458.5 m 128,-1,17
 266 488 266 488 266 531 c 0,18,19
 266 573 266 573 236.5 603 c 128,-1,20
 207 633 207 633 166 633 c 0,21,22
 124 633 124 633 95 603 c 128,-1,23
 66 573 66 573 66 531 c 0,24,25
 66 488 66 488 95 458.5 c 128,-1,26
 124 429 124 429 166 429 c 0,27,16
 207 429 207 429 236.5 458.5 c 128,-1,17
472 668 m 1,28,-1
 527 668 l 1,29,-1
 160 0 l 1,30,-1
 105 0 l 1,31,-1
 472 668 l 1,28,-1
390 6 m 128,-1,33
 356 26 356 26 336 61 c 128,-1,34
 316 96 316 96 316 137 c 256,35,36
 316 178 316 178 336 213 c 128,-1,37
 356 248 356 248 390 268 c 128,-1,38
 424 288 424 288 466 288 c 256,39,40
 508 288 508 288 542 268 c 128,-1,41
 576 248 576 248 596 213 c 128,-1,42
 616 178 616 178 616 137 c 256,43,44
 616 96 616 96 596 61 c 128,-1,45
 576 26 576 26 542 6 c 128,-1,46
 508 -14 508 -14 466 -14 c 256,47,32
 424 -14 424 -14 390 6 c 128,-1,33
536.5 64.5 m 128,-1,49
 566 94 566 94 566 137 c 0,50,51
 566 179 566 179 536.5 209 c 128,-1,52
 507 239 507 239 466 239 c 0,53,54
 424 239 424 239 395 209 c 128,-1,55
 366 179 366 179 366 137 c 0,56,57
 366 94 366 94 395 64.5 c 128,-1,58
 424 35 424 35 466 35 c 0,59,48
 507 35 507 35 536.5 64.5 c 128,-1,49
EndSplineSet
EndChar
StartChar: ampersand
Encoding: 38 38 289
Width: 632
GlyphClass: 1
Flags: W
LayerCount: 2
Fore
SplineSet
78.5 39.5 m 128,-1,1
 22 90 22 90 22 176 c 0,2,3
 22 312 22 312 202 387 c 1,4,5
 166 426 166 426 145.5 463 c 128,-1,6
 125 500 125 500 125 538 c 0,7,8
 125 578 125 578 144.5 611 c 128,-1,9
 164 644 164 644 199 663 c 128,-1,10
 234 682 234 682 278 682 c 0,11,12
 339 682 339 682 384 646 c 128,-1,13
 429 610 429 610 429 540 c 0,14,15
 429 481 429 481 388 439.5 c 128,-1,16
 347 398 347 398 286 372 c 1,17,-1
 445 194 l 1,18,19
 468 256 468 256 469 341 c 1,20,-1
 525 341 l 1,21,22
 524 231 524 231 484 150 c 1,23,-1
 617 0 l 1,24,-1
 545 0 l 1,25,-1
 454 103 l 1,26,27
 414 48 414 48 357 18.5 c 128,-1,28
 300 -11 300 -11 229 -11 c 0,29,0
 135 -11 135 -11 78.5 39.5 c 128,-1,1
340.5 65.5 m 128,-1,31
 388 92 388 92 419 142 c 1,32,-1
 234 351 l 1,33,34
 159 318 159 318 118.5 277.5 c 128,-1,35
 78 237 78 237 78 179 c 0,36,37
 78 111 78 111 122 75 c 128,-1,38
 166 39 166 39 230 39 c 0,39,30
 293 39 293 39 340.5 65.5 c 128,-1,31
343.5 459.5 m 128,-1,41
 376 493 376 493 376 539 c 0,42,43
 376 584 376 584 347 609 c 128,-1,44
 318 634 318 634 278 634 c 0,45,46
 235 634 235 634 207 607.5 c 128,-1,47
 179 581 179 581 179 541 c 0,48,49
 179 508 179 508 197 480.5 c 128,-1,50
 215 453 215 453 257 406 c 1,51,40
 311 426 311 426 343.5 459.5 c 128,-1,41
EndSplineSet
EndChar
StartChar: quotesingle
Encoding: 39 39 285
Width: 632
GlyphClass: 1
Flags: W
LayerCount: 2
Fore
SplineSet
287 668 m 1,0,-1
 346 668 l 1,1,-1
 329 432 l 1,2,-1
 304 432 l 1,3,-1
 287 668 l 1,0,-1
EndSplineSet
EndChar
StartChar: asterisk
Encoding: 42 42 260
Width: 632
GlyphClass: 1
Flags: W
LayerCount: 2
Fore
SplineSet
196 360 m 1,0,-1
 281 479 l 1,1,-1
 141 521 l 1,2,-1
 154 564 l 1,3,-1
 295 520 l 1,4,-1
 295 666 l 1,5,-1
 338 666 l 1,6,-1
 338 520 l 1,7,-1
 479 564 l 1,8,-1
 492 521 l 1,9,-1
 352 479 l 1,10,-1
 439 360 l 1,11,-1
 404 334 l 1,12,-1
 316 450 l 1,13,-1
 232 334 l 1,14,-1
 196 360 l 1,0,-1
EndSplineSet
EndChar
StartChar: hyphen
Encoding: 45 45 264
Width: 632
GlyphClass: 1
Flags: W
LayerCount: 2
Fore
SplineSet
178 277 m 1,0,-1
 454 277 l 1,1,-1
 454 220 l 1,2,-1
 178 220 l 1,3,-1
 178 277 l 1,0,-1
EndSplineSet
EndChar
StartChar: period
Encoding: 46 46 249
Width: 632
GlyphClass: 1
Flags: W
LayerCount: 2
Fore
SplineSet
278.5 3.5 m 128,-1,1
 263 19 263 19 263 41 c 0,2,3
 263 64 263 64 278.5 79 c 128,-1,4
 294 94 294 94 316 94 c 0,5,6
 339 94 339 94 354 79 c 128,-1,7
 369 64 369 64 369 41 c 0,8,9
 369 19 369 19 353.5 3.5 c 128,-1,10
 338 -12 338 -12 316 -12 c 256,11,0
 294 -12 294 -12 278.5 3.5 c 128,-1,1
EndSplineSet
EndChar
StartChar: slash
Encoding: 47 47 262
Width: 632
GlyphClass: 5
Flags: W
LayerCount: 2
Fore
SplineSet
517 708 m 1,0,-1
 572 708 l 1,1,-1
 115 -90 l 1,2,-1
 60 -90 l 1,3,-1
 517 708 l 1,0,-1
EndSplineSet
EndChar
StartChar: one
Encoding: 49 49 230
Width: 632
GlyphClass: 5
Flags: W
LayerCount: 2
Fore
SplineSet
122 50 m 1,0,-1
 301 50 l 1,1,-1
 301 532 l 1,2,-1
 120 532 l 1,3,-1
 120 572 l 1,4,5
 212 572 212 572 257.5 592 c 128,-1,6
 303 612 303 612 320 668 c 1,7,-1
 357 668 l 1,8,-1
 357 50 l 1,9,-1
 522 50 l 1,10,-1
 522 0 l 1,11,-1
 122 0 l 1,12,-1
 122 50 l 1,0,-1
EndSplineSet
Substitution2: "'sups' Superscript in Latin lookup 6 subtable" uni00B9
AlternateSubs2: "'aalt' Access All Alternates in Latin lookup 0 subtable" uni00B9
EndChar
StartChar: three
Encoding: 51 51 232
Width: 632
GlyphClass: 5
Flags: W
LayerCount: 2
Fore
SplineSet
165.5 36.5 m 128,-1,1
 112 85 112 85 100 157 c 1,2,-1
 156 167 l 1,3,4
 167 109 167 109 208 73 c 128,-1,5
 249 37 249 37 321 37 c 0,6,7
 396 37 396 37 444.5 77 c 128,-1,8
 493 117 493 117 493 182 c 0,9,10
 493 255 493 255 441.5 293 c 128,-1,11
 390 331 390 331 311 331 c 2,12,-1
 286 331 l 1,13,-1
 286 380 l 1,14,-1
 311 380 l 2,15,16
 373 380 373 380 421 411.5 c 128,-1,17
 469 443 469 443 469 513 c 0,18,19
 469 568 469 568 428 599.5 c 128,-1,20
 387 631 387 631 329 631 c 0,21,22
 263 631 263 631 219.5 595 c 128,-1,23
 176 559 176 559 166 505 c 1,24,-1
 111 519 l 1,25,26
 128 588 128 588 183.5 634 c 128,-1,27
 239 680 239 680 328 680 c 0,28,29
 382 680 382 680 427 660.5 c 128,-1,30
 472 641 472 641 498.5 603.5 c 128,-1,31
 525 566 525 566 525 513 c 0,32,33
 525 456 525 456 494.5 413.5 c 128,-1,34
 464 371 464 371 403 357 c 1,35,36
 475 346 475 346 513 297.5 c 128,-1,37
 551 249 551 249 551 184 c 0,38,39
 551 122 551 122 519.5 77.5 c 128,-1,40
 488 33 488 33 435.5 10.5 c 128,-1,41
 383 -12 383 -12 321 -12 c 0,42,0
 219 -12 219 -12 165.5 36.5 c 128,-1,1
EndSplineSet
Substitution2: "'sups' Superscript in Latin lookup 6 subtable" uni00B3
AlternateSubs2: "'aalt' Access All Alternates in Latin lookup 0 subtable" uni00B3
EndChar
StartChar: six
Encoding: 54 54 235
Width: 632
GlyphClass: 1
Flags: W
LayerCount: 2
Fore
SplineSet
161 66.5 m 128,-1,1
 102 145 102 145 102 291 c 0,2,3
 102 460 102 460 159.5 570 c 128,-1,4
 217 680 217 680 348 680 c 0,5,6
 413 680 413 680 459 650 c 128,-1,7
 505 620 505 620 526 574 c 1,8,-1
 472 553 l 1,9,10
 457 588 457 588 422.5 609.5 c 128,-1,11
 388 631 388 631 344 631 c 0,12,13
 286 631 286 631 244 590 c 128,-1,14
 202 549 202 549 179.5 478.5 c 128,-1,15
 157 408 157 408 154 320 c 1,16,17
 174 372 174 372 223.5 404.5 c 128,-1,18
 273 437 273 437 341 437 c 0,19,20
 403 437 403 437 451.5 408.5 c 128,-1,21
 500 380 500 380 527 329 c 128,-1,22
 554 278 554 278 554 211 c 0,23,24
 554 153 554 153 527 101.5 c 128,-1,25
 500 50 500 50 449 19 c 128,-1,26
 398 -12 398 -12 331 -12 c 0,27,0
 220 -12 220 -12 161 66.5 c 128,-1,1
451.5 85.5 m 128,-1,29
 497 134 497 134 497 210 c 0,30,31
 497 290 497 290 451.5 339 c 128,-1,32
 406 388 406 388 333 388 c 0,33,34
 257 388 257 388 212 339 c 128,-1,35
 167 290 167 290 167 210 c 0,36,37
 167 133 167 133 212 85 c 128,-1,38
 257 37 257 37 332 37 c 0,39,28
 406 37 406 37 451.5 85.5 c 128,-1,29
EndSplineSet
EndChar
StartChar: nine
Encoding: 57 57 238
Width: 632
GlyphClass: 1
Flags: W
LayerCount: 2
Fore
SplineSet
310 209 m 0,1,2
 251 209 251 209 196.5 238.5 c 128,-1,3
 142 268 142 268 107.5 322 c 128,-1,4
 73 376 73 376 73 446 c 0,5,6
 73 511 73 511 104.5 565.5 c 128,-1,7
 136 620 136 620 190.5 651.5 c 128,-1,8
 245 683 245 683 310 683 c 256,9,10
 375 683 375 683 429.5 651.5 c 128,-1,11
 484 620 484 620 515.5 565.5 c 128,-1,12
 547 511 547 511 547 446 c 0,13,14
 547 397 547 397 533 363 c 128,-1,15
 519 329 519 329 483 270 c 2,16,-1
 316 0 l 1,17,-1
 252 0 l 1,18,-1
 397 228 l 1,19,0
 358 209 358 209 310 209 c 0,1,2
401.5 287.5 m 128,-1,21
 443 312 443 312 467.5 354 c 128,-1,22
 492 396 492 396 492 446 c 256,23,24
 492 496 492 496 467.5 537.5 c 128,-1,25
 443 579 443 579 401.5 603.5 c 128,-1,26
 360 628 360 628 310 628 c 256,27,28
 260 628 260 628 218.5 603.5 c 128,-1,29
 177 579 177 579 152.5 537.5 c 128,-1,30
 128 496 128 496 128 446 c 256,31,32
 128 396 128 396 152.5 354 c 128,-1,33
 177 312 177 312 218.5 287.5 c 128,-1,34
 260 263 260 263 310 263 c 256,35,20
 360 263 360 263 401.5 287.5 c 128,-1,21
EndSplineSet
EndChar
StartChar: B
Encoding: 66 66 13
Width: 632
GlyphClass: 2
Flags: W
AnchorPoint: "Anchor-1" 316 668 basechar 0
AnchorPoint: "Anchor-0" 316 0 basechar 0
LayerCount: 2
Fore
SplineSet
115 668 m 1,0,-1
 343 668 l 2,1,2
 437 668 437 668 485 620 c 128,-1,3
 533 572 533 572 533 497 c 0,4,5
 533 450 533 450 510.5 408 c 128,-1,6
 488 366 488 366 443 349 c 1,7,8
 503 328 503 328 532.5 286 c 128,-1,9
 562 244 562 244 562 184 c 0,10,11
 562 104 562 104 513 52 c 128,-1,12
 464 0 464 0 364 0 c 2,13,-1
 115 0 l 1,14,-1
 115 668 l 1,0,-1
466.5 89 m 128,-1,16
 503 128 503 128 503 188 c 0,17,18
 503 246 503 246 465 283.5 c 128,-1,19
 427 321 427 321 352 321 c 2,20,-1
 173 321 l 1,21,-1
 173 50 l 1,22,-1
 354 50 l 2,23,15
 430 50 430 50 466.5 89 c 128,-1,16
444 404 m 128,-1,25
 475 437 475 437 475 491 c 0,26,27
 475 547 475 547 439.5 582.5 c 128,-1,28
 404 618 404 618 333 618 c 2,29,-1
 173 618 l 1,30,-1
 173 371 l 1,31,-1
 349 371 l 2,32,24
 413 371 413 371 444 404 c 128,-1,25
EndSplineSet
EndChar
StartChar: C
Encoding: 67 67 14
Width: 632
GlyphClass: 2
Flags: W
AnchorPoint: "Anchor-1" 337 668 basechar 0
AnchorPoint: "Anchor-0" 334 0 basechar 0
LayerCount: 2
Fore
SplineSet
187.5 33 m 128,-1,1
 124 78 124 78 89 157.5 c 128,-1,2
 54 237 54 237 54 336 c 256,3,4
 54 435 54 435 90.5 513.5 c 128,-1,5
 127 592 127 592 192.5 636 c 128,-1,6
 258 680 258 680 340 680 c 0,7,8
 416 680 416 680 479.5 641.5 c 128,-1,9
 543 603 543 603 574 531 c 1,10,-1
 524 511 l 1,11,12
 500 564 500 564 453 597 c 128,-1,13
 406 630 406 630 339 630 c 0,14,15
 278 630 278 630 226.5 596 c 128,-1,16
 175 562 175 562 144 495.5 c 128,-1,17
 113 429 113 429 113 336 c 256,18,19
 113 243 113 243 144 175.5 c 128,-1,20
 175 108 175 108 226.5 73 c 128,-1,21
 278 38 278 38 339 38 c 0,22,23
 407 38 407 38 453 71 c 128,-1,24
 499 104 499 104 526 157 c 1,25,-1
 577 137 l 1,26,27
 542 63 542 63 479.5 25.5 c 128,-1,28
 417 -12 417 -12 334 -12 c 256,29,0
 251 -12 251 -12 187.5 33 c 128,-1,1
EndSplineSet
EndChar
StartChar: E
Encoding: 69 69 23
Width: 632
GlyphClass: 2
Flags: W
AnchorPoint: "Anchor-2" 538 10 basechar 0
AnchorPoint: "Anchor-1" 337 668 basechar 0
AnchorPoint: "Anchor-0" 316 0 basechar 0
LayerCount: 2
Fore
SplineSet
136 668 m 1,0,-1
 534 668 l 1,1,-1
 534 618 l 1,2,-1
 194 618 l 1,3,-1
 194 369 l 1,4,-1
 469 369 l 1,5,-1
 469 319 l 1,6,-1
 194 319 l 1,7,-1
 194 50 l 1,8,-1
 538 50 l 1,9,-1
 538 0 l 1,10,-1
 136 0 l 1,11,-1
 136 668 l 1,0,-1
EndSplineSet
EndChar
StartChar: J
Encoding: 74 74 48
Width: 632
GlyphClass: 2
Flags: W
AnchorPoint: "Anchor-1" 472 668 basechar 0
AnchorPoint: "Anchor-0" 322 0 basechar 0
LayerCount: 2
Fore
SplineSet
126 40 m 128,-1,1
 67 92 67 92 70 196 c 1,2,-1
 126 207 l 1,3,4
 125 200 125 200 125 187 c 0,5,6
 125 110 125 110 172 74 c 128,-1,7
 219 38 219 38 288 38 c 0,8,9
 350 38 350 38 396.5 69.5 c 128,-1,10
 443 101 443 101 443 185 c 2,11,-1
 443 668 l 1,12,-1
 501 668 l 1,13,-1
 501 184 l 2,14,15
 501 89 501 89 443 38.5 c 128,-1,16
 385 -12 385 -12 288 -12 c 0,17,0
 185 -12 185 -12 126 40 c 128,-1,1
EndSplineSet
Substitution2: "Single Substitution lookup 13 subtable" uni004A0301
AlternateSubs2: "'aalt' Access All Alternates in Latin lookup 0 subtable" uni004A0301
EndChar
StartChar: K
Encoding: 75 75 50
Width: 632
GlyphClass: 2
Flags: W
AnchorPoint: "Anchor-1" 306 668 basechar 0
AnchorPoint: "Anchor-0" 306 0 basechar 0
LayerCount: 2
Fore
SplineSet
97 668 m 1,0,-1
 155 668 l 1,1,-1
 155 290 l 1,2,-1
 492 668 l 1,3,-1
 564 668 l 1,4,-1
 311 391 l 1,5,-1
 600 0 l 1,6,-1
 530 0 l 1,7,-1
 274 348 l 1,8,-1
 155 219 l 1,9,-1
 155 0 l 1,10,-1
 97 0 l 1,11,-1
 97 668 l 1,0,-1
EndSplineSet
EndChar
StartChar: L
Encoding: 76 76 52
Width: 632
GlyphClass: 2
Flags: W
AnchorPoint: "Anchor-3" 281 459 basechar 0
AnchorPoint: "Anchor-1" 320 668 basechar 0
AnchorPoint: "Anchor-0" 340 0 basechar 0
LayerCount: 2
Fore
SplineSet
146 668 m 1,0,-1
 204 668 l 1,1,-1
 204 50 l 1,2,-1
 582 50 l 1,3,-1
 582 0 l 1,4,-1
 146 0 l 1,5,-1
 146 668 l 1,0,-1
EndSplineSet
EndChar
StartChar: N
Encoding: 78 78 57
Width: 632
GlyphClass: 2
Flags: W
AnchorPoint: "Anchor-1" 316 668 basechar 0
AnchorPoint: "Anchor-0" 300 0 basechar 0
LayerCount: 2
Fore
SplineSet
84 668 m 1,0,-1
 175 668 l 1,1,-1
 486 65 l 1,2,-1
 490 65 l 1,3,-1
 490 668 l 1,4,-1
 548 668 l 1,5,-1
 548 0 l 1,6,-1
 457 0 l 1,7,-1
 146 603 l 1,8,-1
 142 603 l 1,9,-1
 142 0 l 1,10,-1
 84 0 l 1,11,-1
 84 668 l 1,0,-1
EndSplineSet
EndChar
StartChar: O
Encoding: 79 79 62
Width: 632
GlyphClass: 2
Flags: W
AnchorPoint: "Anchor-3" 634 668 basechar 0
AnchorPoint: "Anchor-2" 585 10 basechar 0
AnchorPoint: "Anchor-1" 317 668 basechar 0
AnchorPoint: "Anchor-0" 317 0 basechar 0
LayerCount: 2
Fore
SplineSet
169 32.5 m 128,-1,1
 107 77 107 77 74 155.5 c 128,-1,2
 41 234 41 234 41 334 c 256,3,4
 41 434 41 434 74 512.5 c 128,-1,5
 107 591 107 591 169 635.5 c 128,-1,6
 231 680 231 680 316 680 c 256,7,8
 401 680 401 680 463 635.5 c 128,-1,9
 525 591 525 591 558 512.5 c 128,-1,10
 591 434 591 434 591 334 c 256,11,12
 591 234 591 234 558 155.5 c 128,-1,13
 525 77 525 77 463 32.5 c 128,-1,14
 401 -12 401 -12 316 -12 c 256,15,0
 231 -12 231 -12 169 32.5 c 128,-1,1
427 72.5 m 128,-1,17
 476 107 476 107 504 173.5 c 128,-1,18
 532 240 532 240 532 334 c 256,19,20
 532 428 532 428 504 494.5 c 128,-1,21
 476 561 476 561 427 595.5 c 128,-1,22
 378 630 378 630 316 630 c 256,23,24
 254 630 254 630 205 595.5 c 128,-1,25
 156 561 156 561 128 494.5 c 128,-1,26
 100 428 100 428 100 334 c 256,27,28
 100 240 100 240 128 173.5 c 128,-1,29
 156 107 156 107 205 72.5 c 128,-1,30
 254 38 254 38 316 38 c 256,31,16
 378 38 378 38 427 72.5 c 128,-1,17
EndSplineSet
Substitution2: "Single Substitution lookup 14 subtable" ordmasculine
AlternateSubs2: "'aalt' Access All Alternates in Latin lookup 0 subtable" ordmasculine
EndChar
StartChar: R
Encoding: 82 82 74
Width: 632
GlyphClass: 2
Flags: W
AnchorPoint: "Anchor-1" 292 668 basechar 0
AnchorPoint: "Anchor-0" 311 0 basechar 0
LayerCount: 2
Fore
SplineSet
117 668 m 1,0,-1
 322 668 l 2,1,2
 428 668 428 668 489 620.5 c 128,-1,3
 550 573 550 573 550 479 c 0,4,5
 550 393 550 393 497.5 347 c 128,-1,6
 445 301 445 301 352 293 c 1,7,-1
 562 0 l 1,8,-1
 489 0 l 1,9,-1
 288 290 l 1,10,-1
 175 290 l 1,11,-1
 175 0 l 1,12,-1
 117 0 l 1,13,-1
 117 668 l 1,0,-1
444.5 374 m 128,-1,15
 491 408 491 408 491 479 c 256,16,17
 491 550 491 550 444.5 584 c 128,-1,18
 398 618 398 618 319 618 c 2,19,-1
 175 618 l 1,20,-1
 175 340 l 1,21,-1
 319 340 l 2,22,14
 398 340 398 340 444.5 374 c 128,-1,15
EndSplineSet
EndChar
StartChar: U
Encoding: 85 85 87
Width: 632
GlyphClass: 2
Flags: W
AnchorPoint: "Anchor-3" 646 668 basechar 0
AnchorPoint: "Anchor-1" 316 668 basechar 0
LayerCount: 2
Fore
SplineSet
139.5 51.5 m 128,-1,1
 84 115 84 115 84 244 c 2,2,-1
 84 668 l 1,3,-1
 142 668 l 1,4,-1
 142 240 l 2,5,6
 142 138 142 138 184 88 c 128,-1,7
 226 38 226 38 315 38 c 0,8,9
 405 38 405 38 447.5 88 c 128,-1,10
 490 138 490 138 490 240 c 2,11,-1
 490 668 l 1,12,-1
 548 668 l 1,13,-1
 548 244 l 2,14,15
 548 115 548 115 492 51.5 c 128,-1,16
 436 -12 436 -12 315 -12 c 0,17,0
 195 -12 195 -12 139.5 51.5 c 128,-1,1
EndSplineSet
EndChar
StartChar: V
Encoding: 86 86 96
Width: 632
GlyphClass: 2
Flags: W
AnchorPoint: "Anchor-1" 317 668 basechar 0
AnchorPoint: "Anchor-0" 317 0 basechar 0
LayerCount: 2
Fore
SplineSet
49 668 m 1,0,-1
 109 668 l 1,1,-1
 314 70 l 1,2,-1
 318 70 l 1,3,-1
 525 668 l 1,4,-1
 583 668 l 1,5,-1
 346 0 l 1,6,-1
 285 0 l 1,7,-1
 49 668 l 1,0,-1
EndSplineSet
EndChar
StartChar: Z
Encoding: 90 90 108
Width: 632
GlyphClass: 2
Flags: W
AnchorPoint: "Anchor-1" 320 668 basechar 0
AnchorPoint: "Anchor-0" 316 0 basechar 0
LayerCount: 2
Fore
SplineSet
54 61 m 1,0,-1
 498 616 l 1,1,-1
 69 616 l 1,2,-1
 69 668 l 1,3,-1
 562 668 l 1,4,-1
 562 607 l 1,5,-1
 118 52 l 1,6,-1
 577 52 l 1,7,-1
 577 0 l 1,8,-1
 54 0 l 1,9,-1
 54 61 l 1,0,-1
EndSplineSet
EndChar
StartChar: bracketleft
Encoding: 91 91 272
Width: 632
GlyphClass: 1
Flags: W
LayerCount: 2
Fore
SplineSet
211 708 m 1,0,-1
 469 708 l 1,1,-1
 469 666 l 1,2,-1
 267 666 l 1,3,-1
 267 -120 l 1,4,-1
 469 -120 l 1,5,-1
 469 -162 l 1,6,-1
 211 -162 l 1,7,-1
 211 708 l 1,0,-1
EndSplineSet
EndChar
StartChar: backslash
Encoding: 92 92 263
Width: 632
GlyphClass: 1
Flags: W
LayerCount: 2
Fore
SplineSet
517 -90 m 1,0,-1
 60 708 l 1,1,-1
 115 708 l 1,2,-1
 572 -90 l 1,3,-1
 517 -90 l 1,0,-1
EndSplineSet
EndChar
StartChar: bracketright
Encoding: 93 93 273
Width: 632
GlyphClass: 1
Flags: W
LayerCount: 2
Fore
SplineSet
163 -120 m 1,0,-1
 365 -120 l 1,1,-1
 365 666 l 1,2,-1
 163 666 l 1,3,-1
 163 708 l 1,4,-1
 421 708 l 1,5,-1
 421 -162 l 1,6,-1
 163 -162 l 1,7,-1
 163 -120 l 1,0,-1
EndSplineSet
EndChar
StartChar: asciicircum
Encoding: 94 94 325
Width: 632
GlyphClass: 1
Flags: W
LayerCount: 2
Fore
SplineSet
288 668 m 1,0,-1
 344 668 l 1,1,-1
 530 311 l 1,2,-1
 470 311 l 1,3,-1
 316 611 l 1,4,-1
 162 311 l 1,5,-1
 102 311 l 1,6,-1
 288 668 l 1,0,-1
EndSplineSet
EndChar
StartChar: b
Encoding: 98 98 123
Width: 632
GlyphClass: 2
Flags: W
AnchorPoint: "Anchor-1" 304 496 basechar 0
AnchorPoint: "Anchor-0" 304 0 basechar 0
LayerCount: 2
Fore
SplineSet
228.5 15 m 128,-1,1
 181 42 181 42 154 85 c 1,2,-1
 141 0 l 1,3,-1
 99 0 l 1,4,-1
 99 708 l 1,5,-1
 155 708 l 1,6,-1
 155 405 l 1,7,8
 182 451 182 451 230 478.5 c 128,-1,9
 278 506 278 506 340 506 c 0,10,11
 409 506 409 506 462 475 c 128,-1,12
 515 444 515 444 544 386 c 128,-1,13
 573 328 573 328 573 247 c 256,14,15
 573 166 573 166 544 108 c 128,-1,16
 515 50 515 50 462 19 c 128,-1,17
 409 -12 409 -12 340 -12 c 0,18,0
 276 -12 276 -12 228.5 15 c 128,-1,1
467 92.5 m 128,-1,20
 516 148 516 148 516 247 c 256,21,22
 516 346 516 346 467 401.5 c 128,-1,23
 418 457 418 457 334 457 c 0,24,25
 253 457 253 457 204 400 c 128,-1,26
 155 343 155 343 155 247 c 256,27,28
 155 151 155 151 204 94 c 128,-1,29
 253 37 253 37 334 37 c 0,30,19
 418 37 418 37 467 92.5 c 128,-1,20
EndSplineSet
EndChar
StartChar: e
Encoding: 101 101 133
Width: 632
GlyphClass: 2
Flags: W
AnchorPoint: "Anchor-2" 475 10 basechar 0
AnchorPoint: "Anchor-1" 326 496 basechar 0
AnchorPoint: "Anchor-0" 313 0 basechar 0
LayerCount: 2
Fore
SplineSet
194 22 m 128,-1,1
 140 56 140 56 111.5 114.5 c 128,-1,2
 83 173 83 173 83 245 c 0,3,4
 83 323 83 323 113.5 382.5 c 128,-1,5
 144 442 144 442 198 474 c 128,-1,6
 252 506 252 506 321 506 c 0,7,8
 395 506 395 506 448.5 468.5 c 128,-1,9
 502 431 502 431 527.5 370.5 c 128,-1,10
 553 310 553 310 548 243 c 1,11,-1
 140 243 l 1,12,13
 141 168 141 168 169.5 122 c 128,-1,14
 198 76 198 76 240.5 56.5 c 128,-1,15
 283 37 283 37 328 37 c 0,16,17
 420 37 420 37 464 101 c 1,18,-1
 520 81 l 1,19,20
 455 -12 455 -12 323 -12 c 0,21,0
 248 -12 248 -12 194 22 c 128,-1,1
469 367.5 m 128,-1,23
 450 406 450 406 412.5 431.5 c 128,-1,24
 375 457 375 457 321 457 c 0,25,26
 251 457 251 457 202 416.5 c 128,-1,27
 153 376 153 376 142 289 c 1,28,-1
 489 289 l 1,29,22
 488 329 488 329 469 367.5 c 128,-1,23
EndSplineSet
EndChar
StartChar: l
Encoding: 108 108 163
Width: 632
GlyphClass: 2
Flags: W
AnchorPoint: "Anchor-3" 364 499 basechar 0
AnchorPoint: "Anchor-1" 266 796 basechar 0
AnchorPoint: "Anchor-0" 370 0 basechar 0
LayerCount: 2
Fore
SplineSet
259 20.5 m 128,-1,1
 238 41 238 41 238 96 c 2,2,-1
 238 663 l 1,3,-1
 123 663 l 1,4,-1
 123 708 l 1,5,-1
 294 708 l 1,6,-1
 294 100 l 2,7,8
 294 69 294 69 303 59 c 128,-1,9
 312 49 312 49 344 49 c 2,10,-1
 529 49 l 1,11,-1
 529 0 l 1,12,-1
 338 0 l 2,13,0
 280 0 280 0 259 20.5 c 128,-1,1
EndSplineSet
EndChar
StartChar: m
Encoding: 109 109 167
Width: 632
GlyphClass: 2
Flags: W
AnchorPoint: "Anchor-1" 312 496 basechar 0
AnchorPoint: "Anchor-0" 317 0 basechar 0
LayerCount: 2
Fore
SplineSet
70 496 m 1,0,-1
 114 496 l 1,1,-1
 123 441 l 1,2,3
 137 468 137 468 164.5 487 c 128,-1,4
 192 506 192 506 231 506 c 0,5,6
 311 506 311 506 337 438 c 1,7,8
 349 466 349 466 378 486 c 128,-1,9
 407 506 407 506 448 506 c 0,10,11
 507 506 507 506 535.5 470.5 c 128,-1,12
 564 435 564 435 564 375 c 2,13,-1
 564 0 l 1,14,-1
 508 0 l 1,15,-1
 508 357 l 2,16,17
 508 457 508 457 435 457 c 0,18,19
 395 457 395 457 370 425.5 c 128,-1,20
 345 394 345 394 345 336 c 2,21,-1
 345 0 l 1,22,-1
 289 0 l 1,23,-1
 289 358 l 2,24,25
 289 457 289 457 218 457 c 0,26,27
 177 457 177 457 151.5 425 c 128,-1,28
 126 393 126 393 126 335 c 2,29,-1
 126 0 l 1,30,-1
 70 0 l 1,31,-1
 70 496 l 1,0,-1
EndSplineSet
EndChar
StartChar: n
Encoding: 110 110 168
Width: 632
GlyphClass: 2
Flags: W
AnchorPoint: "Anchor-1" 316 496 basechar 0
AnchorPoint: "Anchor-0" 310 0 basechar 0
LayerCount: 2
Fore
SplineSet
113 496 m 1,0,-1
 155 496 l 1,1,-1
 167 416 l 1,2,3
 188 451 188 451 232.5 478.5 c 128,-1,4
 277 506 277 506 340 506 c 0,5,6
 430 506 430 506 475.5 457 c 128,-1,7
 521 408 521 408 521 328 c 2,8,-1
 521 0 l 1,9,-1
 465 0 l 1,10,-1
 465 310 l 2,11,12
 465 378 465 378 433 417.5 c 128,-1,13
 401 457 401 457 333 457 c 0,14,15
 259 457 259 457 214 408 c 128,-1,16
 169 359 169 359 169 273 c 2,17,-1
 169 0 l 1,18,-1
 113 0 l 1,19,-1
 113 496 l 1,0,-1
EndSplineSet
EndChar
StartChar: o
Encoding: 111 111 173
Width: 632
GlyphClass: 2
Flags: W
AnchorPoint: "Anchor-3" 592 496 basechar 0
AnchorPoint: "Anchor-2" 555 10 basechar 0
AnchorPoint: "Anchor-1" 316 496 basechar 0
AnchorPoint: "Anchor-0" 316 0 basechar 0
LayerCount: 2
Fore
SplineSet
198 16 m 128,-1,1
 142 44 142 44 106 102.5 c 128,-1,2
 70 161 70 161 70 247 c 256,3,4
 70 333 70 333 106 391.5 c 128,-1,5
 142 450 142 450 198 478 c 128,-1,6
 254 506 254 506 316 506 c 256,7,8
 378 506 378 506 434 478 c 128,-1,9
 490 450 490 450 526 391.5 c 128,-1,10
 562 333 562 333 562 247 c 256,11,12
 562 161 562 161 526 102.5 c 128,-1,13
 490 44 490 44 434 16 c 128,-1,14
 378 -12 378 -12 316 -12 c 256,15,0
 254 -12 254 -12 198 16 c 128,-1,1
410 60 m 128,-1,17
 453 83 453 83 479 130.5 c 128,-1,18
 505 178 505 178 505 247 c 256,19,20
 505 316 505 316 479 363.5 c 128,-1,21
 453 411 453 411 410 434 c 128,-1,22
 367 457 367 457 316 457 c 256,23,24
 265 457 265 457 222 434 c 128,-1,25
 179 411 179 411 153 363.5 c 128,-1,26
 127 316 127 316 127 247 c 256,27,28
 127 178 127 178 153 130.5 c 128,-1,29
 179 83 179 83 222 60 c 128,-1,30
 265 37 265 37 316 37 c 256,31,16
 367 37 367 37 410 60 c 128,-1,17
EndSplineSet
Substitution2: "Single Substitution lookup 14 subtable" ordmasculine
AlternateSubs2: "'aalt' Access All Alternates in Latin lookup 0 subtable" ordmasculine
EndChar
StartChar: p
Encoding: 112 112 182
Width: 632
GlyphClass: 2
Flags: W
AnchorPoint: "Anchor-1" 274 496 basechar 0
AnchorPoint: "Anchor-0" 274 0 basechar 0
LayerCount: 2
Fore
SplineSet
99 496 m 1,0,-1
 141 496 l 1,1,-1
 157 408 l 1,2,3
 184 452 184 452 231 479 c 128,-1,4
 278 506 278 506 340 506 c 0,5,6
 409 506 409 506 462 475 c 128,-1,7
 515 444 515 444 544 386 c 128,-1,8
 573 328 573 328 573 247 c 256,9,10
 573 166 573 166 544 108 c 128,-1,11
 515 50 515 50 462 19 c 128,-1,12
 409 -12 409 -12 340 -12 c 0,13,14
 277 -12 277 -12 229 15 c 128,-1,15
 181 42 181 42 155 84 c 1,16,-1
 155 -162 l 1,17,-1
 99 -162 l 1,18,-1
 99 496 l 1,0,-1
467 92.5 m 128,-1,20
 516 148 516 148 516 247 c 256,21,22
 516 346 516 346 467 401.5 c 128,-1,23
 418 457 418 457 334 457 c 0,24,25
 253 457 253 457 204 399.5 c 128,-1,26
 155 342 155 342 155 247 c 0,27,28
 155 151 155 151 204 94 c 128,-1,29
 253 37 253 37 334 37 c 0,30,19
 418 37 418 37 467 92.5 c 128,-1,20
EndSplineSet
EndChar
StartChar: r
Encoding: 114 114 185
Width: 632
GlyphClass: 2
Flags: W
AnchorPoint: "Anchor-1" 315 496 basechar 0
AnchorPoint: "Anchor-0" 189 0 basechar 0
LayerCount: 2
Fore
SplineSet
161 496 m 1,0,-1
 203 496 l 1,1,-1
 219 372 l 1,2,3
 250 435 250 435 310.5 468.5 c 128,-1,4
 371 502 371 502 447 502 c 0,5,6
 485 502 485 502 521 494 c 1,7,-1
 521 432 l 1,8,9
 474 445 474 445 433 445 c 0,10,11
 338 445 338 445 277.5 386.5 c 128,-1,12
 217 328 217 328 217 217 c 2,13,-1
 217 0 l 1,14,-1
 161 0 l 1,15,-1
 161 496 l 1,0,-1
EndSplineSet
EndChar
StartChar: s
Encoding: 115 115 188
Width: 632
GlyphClass: 2
Flags: W
AnchorPoint: "Anchor-1" 314 496 basechar 0
AnchorPoint: "Anchor-0" 325 0 basechar 0
LayerCount: 2
Fore
SplineSet
191 19 m 128,-1,1
 131 50 131 50 109 112 c 1,2,-1
 164 133 l 1,3,4
 178 87 178 87 219.5 62 c 128,-1,5
 261 37 261 37 325 37 c 0,6,7
 393 37 393 37 431 63 c 128,-1,8
 469 89 469 89 469 130 c 0,9,10
 469 172 469 172 438 192.5 c 128,-1,11
 407 213 407 213 344 227 c 2,12,-1
 265 244 l 2,13,14
 195 258 195 258 159.5 287.5 c 128,-1,15
 124 317 124 317 124 371 c 0,16,17
 124 432 124 432 177.5 469 c 128,-1,18
 231 506 231 506 314 506 c 0,19,20
 384 506 384 506 434.5 480 c 128,-1,21
 485 454 485 454 505 407 c 1,22,-1
 452 386 l 1,23,24
 439 420 439 420 401.5 438.5 c 128,-1,25
 364 457 364 457 312 457 c 0,26,27
 253 457 253 457 215.5 435 c 128,-1,28
 178 413 178 413 178 374 c 0,29,30
 178 315 178 315 279 294 c 2,31,-1
 359 277 l 2,32,33
 443 259 443 259 483 227.5 c 128,-1,34
 523 196 523 196 523 134 c 0,35,36
 523 67 523 67 467 27.5 c 128,-1,37
 411 -12 411 -12 324 -12 c 0,38,0
 251 -12 251 -12 191 19 c 128,-1,1
EndSplineSet
EndChar
StartChar: u
Encoding: 117 117 198
Width: 632
GlyphClass: 2
Flags: W
AnchorPoint: "Anchor-3" 554 496 basechar 0
AnchorPoint: "Anchor-2" 512 10 basechar 0
AnchorPoint: "Anchor-1" 314 496 basechar 0
AnchorPoint: "Anchor-0" 303 0 basechar 0
LayerCount: 2
Fore
SplineSet
159.5 37 m 128,-1,1
 117 86 117 86 117 170 c 2,2,-1
 117 496 l 1,3,-1
 173 496 l 1,4,-1
 173 187 l 2,5,6
 173 115 173 115 202 76 c 128,-1,7
 231 37 231 37 299 37 c 0,8,9
 370 37 370 37 413 85.5 c 128,-1,10
 456 134 456 134 456 220 c 2,11,-1
 456 496 l 1,12,-1
 512 496 l 1,13,-1
 512 0 l 1,14,-1
 470 0 l 1,15,-1
 458 80 l 1,16,17
 438 42 438 42 396.5 15 c 128,-1,18
 355 -12 355 -12 292 -12 c 0,19,0
 202 -12 202 -12 159.5 37 c 128,-1,1
EndSplineSet
EndChar
StartChar: x
Encoding: 120 120 213
Width: 632
GlyphClass: 2
Flags: W
AnchorPoint: "Anchor-1" 317 496 basechar 0
AnchorPoint: "Anchor-0" 317 0 basechar 0
LayerCount: 2
Fore
SplineSet
278 253 m 1,0,-1
 84 496 l 1,1,-1
 151 496 l 1,2,-1
 313 289 l 1,3,-1
 317 289 l 1,4,-1
 483 496 l 1,5,-1
 549 496 l 1,6,-1
 355 252 l 1,7,-1
 556 0 l 1,8,-1
 489 0 l 1,9,-1
 317 216 l 1,10,-1
 313 216 l 1,11,-1
 142 0 l 1,12,-1
 77 0 l 1,13,-1
 278 253 l 1,0,-1
EndSplineSet
EndChar
StartChar: braceleft
Encoding: 123 123 270
Width: 632
GlyphClass: 1
Flags: W
LayerCount: 2
Fore
SplineSet
280.5 -152.5 m 128,-1,1
 259 -143 259 -143 252 -124 c 128,-1,2
 245 -105 245 -105 245 -68 c 2,3,-1
 245 157 l 2,4,5
 245 193 245 193 237 212.5 c 128,-1,6
 229 232 229 232 209 240.5 c 128,-1,7
 189 249 189 249 150 251 c 1,8,-1
 150 295 l 1,9,10
 189 297 189 297 209 305.5 c 128,-1,11
 229 314 229 314 237 333.5 c 128,-1,12
 245 353 245 353 245 389 c 2,13,-1
 245 614 l 2,14,15
 245 651 245 651 252 670 c 128,-1,16
 259 689 259 689 280.5 698.5 c 128,-1,17
 302 708 302 708 346 708 c 2,18,-1
 470 708 l 1,19,-1
 470 664 l 1,20,-1
 342 664 l 2,21,22
 318 664 318 664 309 655 c 128,-1,23
 300 646 300 646 300 624 c 2,24,-1
 300 402 l 2,25,26
 300 342 300 342 284 314 c 128,-1,27
 268 286 268 286 232 276 c 1,28,-1
 232 270 l 1,29,30
 268 260 268 260 284 232 c 128,-1,31
 300 204 300 204 300 144 c 2,32,-1
 300 -78 l 2,33,34
 300 -100 300 -100 309 -109 c 128,-1,35
 318 -118 318 -118 342 -118 c 2,36,-1
 470 -118 l 1,37,-1
 470 -162 l 1,38,-1
 346 -162 l 2,39,0
 302 -162 302 -162 280.5 -152.5 c 128,-1,1
EndSplineSet
EndChar
StartChar: braceright
Encoding: 125 125 271
Width: 632
GlyphClass: 1
Flags: W
LayerCount: 2
Fore
SplineSet
162 -118 m 1,0,-1
 290 -118 l 2,1,2
 314 -118 314 -118 323 -109 c 128,-1,3
 332 -100 332 -100 332 -78 c 2,4,-1
 332 144 l 2,5,6
 332 204 332 204 348 232 c 128,-1,7
 364 260 364 260 400 270 c 1,8,-1
 400 276 l 1,9,10
 364 286 364 286 348 314 c 128,-1,11
 332 342 332 342 332 402 c 2,12,-1
 332 624 l 2,13,14
 332 646 332 646 323 655 c 128,-1,15
 314 664 314 664 290 664 c 2,16,-1
 162 664 l 1,17,-1
 162 708 l 1,18,-1
 286 708 l 2,19,20
 330 708 330 708 351.5 698.5 c 128,-1,21
 373 689 373 689 380 670 c 128,-1,22
 387 651 387 651 387 614 c 2,23,-1
 387 389 l 2,24,25
 387 353 387 353 395 333.5 c 128,-1,26
 403 314 403 314 423 305.5 c 128,-1,27
 443 297 443 297 482 295 c 1,28,-1
 482 251 l 1,29,30
 443 249 443 249 423 240.5 c 128,-1,31
 403 232 403 232 395 212.5 c 128,-1,32
 387 193 387 193 387 157 c 2,33,-1
 387 -68 l 2,34,35
 387 -105 387 -105 380 -124 c 128,-1,36
 373 -143 373 -143 351.5 -152.5 c 128,-1,37
 330 -162 330 -162 286 -162 c 2,38,-1
 162 -162 l 1,39,-1
 162 -118 l 1,0,-1
EndSplineSet
EndChar
StartChar: asciitilde
Encoding: 126 126 324
Width: 632
GlyphClass: 1
Flags: W
LayerCount: 2
Fore
SplineSet
111.5 287.5 m 128,-1,1
 142 318 142 318 197 318 c 0,2,3
 224 318 224 318 253 309 c 128,-1,4
 282 300 282 300 326 283 c 0,5,6
 366 268 366 268 390 260.5 c 128,-1,7
 414 253 414 253 435 253 c 0,8,9
 498 253 498 253 506 324 c 1,10,-1
 556 313 l 1,11,12
 549 261 549 261 518.5 231 c 128,-1,13
 488 201 488 201 433 201 c 0,14,15
 406 201 406 201 377 210 c 128,-1,16
 348 219 348 219 304 236 c 0,17,18
 264 251 264 251 240 258.5 c 128,-1,19
 216 266 216 266 195 266 c 0,20,21
 132 266 132 266 124 195 c 1,22,-1
 74 205 l 1,23,0
 81 257 81 257 111.5 287.5 c 128,-1,1
EndSplineSet
EndChar
StartChar: exclamdown
Encoding: 161 161 255
Width: 632
GlyphClass: 1
Flags: W
LayerCount: 2
Fore
SplineSet
288 1 m 1,0,-1
 300 327 l 1,1,-1
 332 327 l 1,2,-1
 344 1 l 1,3,-1
 344 -170 l 1,4,-1
 288 -170 l 1,5,-1
 288 1 l 1,0,-1
282 428 m 128,-1,7
 268 442 268 442 268 462 c 256,8,9
 268 482 268 482 282 496 c 128,-1,10
 296 510 296 510 316 510 c 256,11,12
 336 510 336 510 350 496 c 128,-1,13
 364 482 364 482 364 462 c 256,14,15
 364 442 364 442 350 428 c 128,-1,16
 336 414 336 414 316 414 c 256,17,6
 296 414 296 414 282 428 c 128,-1,7
EndSplineSet
EndChar
StartChar: sterling
Encoding: 163 163 307
Width: 632
GlyphClass: 1
Flags: W
LayerCount: 2
Fore
SplineSet
159 69.5 m 128,-1,1
 189 95 189 95 212.5 133 c 128,-1,2
 236 171 236 171 236 215 c 0,3,4
 236 265 236 265 212 329 c 1,5,-1
 102 329 l 1,6,-1
 102 369 l 1,7,-1
 193 369 l 1,8,9
 170 420 170 420 159.5 451.5 c 128,-1,10
 149 483 149 483 149 515 c 0,11,12
 149 593 149 593 202 637 c 128,-1,13
 255 681 255 681 344 681 c 0,14,15
 425 681 425 681 479 644 c 128,-1,16
 533 607 533 607 548 544 c 1,17,-1
 486 531 l 1,18,19
 460 631 460 631 347 631 c 0,20,21
 291 631 291 631 248 605.5 c 128,-1,22
 205 580 205 580 205 517 c 0,23,24
 205 491 205 491 213 466.5 c 128,-1,25
 221 442 221 442 241 394 c 2,26,-1
 252 369 l 1,27,-1
 467 369 l 1,28,-1
 467 329 l 1,29,-1
 270 329 l 1,30,31
 291 271 291 271 291 224 c 0,32,33
 291 168 291 168 271.5 131 c 128,-1,34
 252 94 252 94 213 69 c 1,35,36
 232 76 232 76 252 76 c 0,37,38
 271 76 271 76 287.5 72 c 128,-1,39
 304 68 304 68 336 58 c 0,40,41
 369 48 369 48 393 42.5 c 128,-1,42
 417 37 417 37 445 37 c 0,43,44
 465 37 465 37 483.5 41.5 c 128,-1,45
 502 46 502 46 540 60 c 1,46,-1
 556 15 l 1,47,48
 491 -12 491 -12 448 -12 c 0,49,50
 423 -12 423 -12 400.5 -7 c 128,-1,51
 378 -2 378 -2 349 8 c 0,52,53
 316 18 316 18 296 22.5 c 128,-1,54
 276 27 276 27 250 27 c 0,55,56
 219 27 219 27 190.5 18.5 c 128,-1,57
 162 10 162 10 123 -10 c 1,58,-1
 104 31 l 1,59,0
 129 44 129 44 159 69.5 c 128,-1,1
EndSplineSet
EndChar
StartChar: currency
Encoding: 164 164 303
Width: 632
GlyphClass: 1
Flags: W
LayerCount: 2
Fore
SplineSet
83 115 m 1,0,-1
 148 180 l 1,1,2
 98 241 98 241 98 321 c 256,3,4
 98 401 98 401 148 462 c 1,5,-1
 83 527 l 1,6,-1
 111 553 l 1,7,-1
 176 489 l 1,8,9
 205 513 205 513 241 525.5 c 128,-1,10
 277 538 277 538 316 538 c 256,11,12
 355 538 355 538 391 525.5 c 128,-1,13
 427 513 427 513 456 489 c 1,14,-1
 521 553 l 1,15,-1
 549 527 l 1,16,-1
 484 462 l 1,17,18
 534 401 534 401 534 321 c 256,19,20
 534 241 534 241 484 180 c 1,21,-1
 549 115 l 1,22,-1
 521 89 l 1,23,-1
 456 153 l 1,24,25
 427 129 427 129 391 116.5 c 128,-1,26
 355 104 355 104 316 104 c 256,27,28
 277 104 277 104 241 116.5 c 128,-1,29
 205 129 205 129 176 153 c 1,30,-1
 111 89 l 1,31,-1
 83 115 l 1,0,-1
398.5 178 m 128,-1,33
 436 200 436 200 458 238 c 128,-1,34
 480 276 480 276 480 321 c 256,35,36
 480 366 480 366 458 404 c 128,-1,37
 436 442 436 442 398.5 464 c 128,-1,38
 361 486 361 486 316 486 c 256,39,40
 271 486 271 486 233.5 464 c 128,-1,41
 196 442 196 442 174 404 c 128,-1,42
 152 366 152 366 152 321 c 256,43,44
 152 276 152 276 174 238 c 128,-1,45
 196 200 196 200 233.5 178 c 128,-1,46
 271 156 271 156 316 156 c 256,47,32
 361 156 361 156 398.5 178 c 128,-1,33
EndSplineSet
EndChar
StartChar: brokenbar
Encoding: 166 166 297
Width: 632
GlyphClass: 1
Flags: W
LayerCount: 2
Fore
SplineSet
288 233 m 1,0,-1
 344 233 l 1,1,-1
 344 -162 l 1,2,-1
 288 -162 l 1,3,-1
 288 233 l 1,0,-1
288 838 m 1,4,-1
 344 838 l 1,5,-1
 344 443 l 1,6,-1
 288 443 l 1,7,-1
 288 838 l 1,4,-1
EndSplineSet
EndChar
StartChar: section
Encoding: 167 167 291
Width: 632
GlyphClass: 1
Flags: W
LayerCount: 2
Fore
SplineSet
193 -140.5 m 128,-1,1
 144 -108 144 -108 128 -49 c 1,2,-1
 188 -36 l 1,3,4
 199 -80 199 -80 229 -103.5 c 128,-1,5
 259 -127 259 -127 313 -127 c 0,6,7
 364 -127 364 -127 398 -101.5 c 128,-1,8
 432 -76 432 -76 432 -40 c 0,9,10
 432 -12 432 -12 410 10.5 c 128,-1,11
 388 33 388 33 321 70 c 2,12,-1
 225 122 l 2,13,14
 153 161 153 161 124.5 195 c 128,-1,15
 96 229 96 229 96 279 c 0,16,17
 96 369 96 369 230 425 c 1,18,19
 184 455 184 455 166.5 483 c 128,-1,20
 149 511 149 511 149 545 c 0,21,22
 149 585 149 585 172.5 616 c 128,-1,23
 196 647 196 647 235.5 663.5 c 128,-1,24
 275 680 275 680 319 680 c 0,25,26
 390 680 390 680 439 647.5 c 128,-1,27
 488 615 488 615 504 556 c 1,28,-1
 444 543 l 1,29,30
 433 587 433 587 403 610.5 c 128,-1,31
 373 634 373 634 319 634 c 0,32,33
 268 634 268 634 234 608.5 c 128,-1,34
 200 583 200 583 200 547 c 0,35,36
 200 519 200 519 222 496.5 c 128,-1,37
 244 474 244 474 311 437 c 2,38,-1
 407 385 l 2,39,40
 479 346 479 346 507.5 312 c 128,-1,41
 536 278 536 278 536 228 c 0,42,43
 536 138 536 138 402 82 c 1,44,45
 448 52 448 52 465.5 24 c 128,-1,46
 483 -4 483 -4 483 -38 c 0,47,48
 483 -78 483 -78 459.5 -109 c 128,-1,49
 436 -140 436 -140 396.5 -156.5 c 128,-1,50
 357 -173 357 -173 313 -173 c 0,51,0
 242 -173 242 -173 193 -140.5 c 128,-1,1
485 224 m 0,53,54
 485 259 485 259 459.5 285 c 128,-1,55
 434 311 434 311 374 344 c 2,56,-1
 271 400 l 1,57,58
 147 350 147 350 147 283 c 0,59,60
 147 248 147 248 172.5 222 c 128,-1,61
 198 196 198 196 258 163 c 2,62,-1
 361 107 l 1,63,52
 485 157 485 157 485 224 c 0,53,54
EndSplineSet
EndChar
StartChar: copyright
Encoding: 169 169 292
Width: 632
GlyphClass: 1
Flags: W
LayerCount: 2
Fore
SplineSet
161.5 33 m 128,-1,1
 94 79 94 79 57 158.5 c 128,-1,2
 20 238 20 238 20 334 c 256,3,4
 20 430 20 430 57 509.5 c 128,-1,5
 94 589 94 589 161.5 635 c 128,-1,6
 229 681 229 681 316 681 c 256,7,8
 403 681 403 681 470.5 635 c 128,-1,9
 538 589 538 589 575 509.5 c 128,-1,10
 612 430 612 430 612 334 c 256,11,12
 612 238 612 238 575 158.5 c 128,-1,13
 538 79 538 79 470.5 33 c 128,-1,14
 403 -13 403 -13 316 -13 c 256,15,0
 229 -13 229 -13 161.5 33 c 128,-1,1
210 194 m 128,-1,17
 168 245 168 245 168 335 c 256,18,19
 168 425 168 425 210.5 475.5 c 128,-1,20
 253 526 253 526 322 526 c 0,21,22
 402 526 402 526 441 446 c 1,23,-1
 391 425 l 1,24,25
 368 480 368 480 319 480 c 0,26,27
 279 480 279 480 252.5 442.5 c 128,-1,28
 226 405 226 405 226 335 c 0,29,30
 226 266 226 266 252.5 227.5 c 128,-1,31
 279 189 279 189 318 189 c 0,32,33
 346 189 346 189 363.5 201.5 c 128,-1,34
 381 214 381 214 394 243 c 1,35,-1
 444 223 l 1,36,37
 426 189 426 189 397.5 166 c 128,-1,38
 369 143 369 143 321 143 c 0,39,16
 252 143 252 143 210 194 c 128,-1,17
445.5 75 m 128,-1,41
 502 115 502 115 532.5 183 c 128,-1,42
 563 251 563 251 563 334 c 256,43,44
 563 417 563 417 532.5 485 c 128,-1,45
 502 553 502 553 445.5 593 c 128,-1,46
 389 633 389 633 316 633 c 256,47,48
 243 633 243 633 186.5 593 c 128,-1,49
 130 553 130 553 99.5 485 c 128,-1,50
 69 417 69 417 69 334 c 256,51,52
 69 251 69 251 99.5 183 c 128,-1,53
 130 115 130 115 186.5 75 c 128,-1,54
 243 35 243 35 316 35 c 256,55,40
 389 35 389 35 445.5 75 c 128,-1,41
EndSplineSet
EndChar
StartChar: ordfeminine
Encoding: 170 170 223
Width: 632
GlyphClass: 1
Flags: W
LayerCount: 2
Fore
SplineSet
197 358.5 m 128,-1,1
 168 382 168 382 168 428 c 0,2,3
 168 485 168 485 224 512.5 c 128,-1,4
 280 540 280 540 399 548 c 1,5,6
 399 578 399 578 394.5 599 c 128,-1,7
 390 620 390 620 371.5 635.5 c 128,-1,8
 353 651 353 651 315 651 c 0,9,10
 281 651 281 651 256.5 636.5 c 128,-1,11
 232 622 232 622 224 595 c 1,12,-1
 181 604 l 1,13,14
 192 642 192 642 228 667.5 c 128,-1,15
 264 693 264 693 314 693 c 0,16,17
 375 693 375 693 410.5 658 c 128,-1,18
 446 623 446 623 446 547 c 2,19,-1
 446 446 l 2,20,21
 446 404 446 404 449.5 382 c 128,-1,22
 453 360 453 360 462 343 c 1,23,-1
 414 343 l 1,24,-1
 400 394 l 1,25,26
 362 335 362 335 278 335 c 0,27,0
 226 335 226 335 197 358.5 c 128,-1,1
368.5 407.5 m 128,-1,29
 398 441 398 441 398 490 c 2,30,-1
 398 510 l 1,31,32
 298 503 298 503 258.5 484 c 128,-1,33
 219 465 219 465 219 426 c 0,34,35
 219 399 219 399 235 386.5 c 128,-1,36
 251 374 251 374 284 374 c 0,37,28
 339 374 339 374 368.5 407.5 c 128,-1,29
EndSplineSet
EndChar
StartChar: guillemotleft
Encoding: 171 171 280
Width: 632
GlyphClass: 1
Flags: W
LayerCount: 2
Fore
SplineSet
307 250 m 1,0,-1
 455 460 l 1,1,-1
 518 460 l 1,2,-1
 370 250 l 1,3,-1
 518 40 l 1,4,-1
 455 40 l 1,5,-1
 307 250 l 1,0,-1
114 250 m 1,6,-1
 262 460 l 1,7,-1
 325 460 l 1,8,-1
 177 250 l 1,9,-1
 325 40 l 1,10,-1
 262 40 l 1,11,-1
 114 250 l 1,6,-1
EndSplineSet
EndChar
StartChar: registered
Encoding: 174 174 293
Width: 632
GlyphClass: 1
Flags: W
LayerCount: 2
Fore
SplineSet
161.5 33 m 128,-1,1
 94 79 94 79 57 158.5 c 128,-1,2
 20 238 20 238 20 334 c 256,3,4
 20 430 20 430 57 509.5 c 128,-1,5
 94 589 94 589 161.5 635 c 128,-1,6
 229 681 229 681 316 681 c 256,7,8
 403 681 403 681 470.5 635 c 128,-1,9
 538 589 538 589 575 509.5 c 128,-1,10
 612 430 612 430 612 334 c 256,11,12
 612 238 612 238 575 158.5 c 128,-1,13
 538 79 538 79 470.5 33 c 128,-1,14
 403 -13 403 -13 316 -13 c 256,15,0
 229 -13 229 -13 161.5 33 c 128,-1,1
445.5 75 m 128,-1,17
 502 115 502 115 532.5 183 c 128,-1,18
 563 251 563 251 563 334 c 256,19,20
 563 417 563 417 532.5 485 c 128,-1,21
 502 553 502 553 445.5 593 c 128,-1,22
 389 633 389 633 316 633 c 256,23,24
 243 633 243 633 186.5 593 c 128,-1,25
 130 553 130 553 99.5 485 c 128,-1,26
 69 417 69 417 69 334 c 256,27,28
 69 251 69 251 99.5 183 c 128,-1,29
 130 115 130 115 186.5 75 c 128,-1,30
 243 35 243 35 316 35 c 256,31,16
 389 35 389 35 445.5 75 c 128,-1,17
207 529 m 1,32,-1
 318 529 l 2,33,34
 377 529 377 529 409.5 499 c 128,-1,35
 442 469 442 469 442 417 c 0,36,37
 442 380 442 380 423.5 352.5 c 128,-1,38
 405 325 405 325 367 311 c 1,39,-1
 459 162 l 1,40,-1
 397 162 l 1,41,-1
 312 302 l 1,42,-1
 262 302 l 1,43,-1
 262 162 l 1,44,-1
 207 162 l 1,45,-1
 207 529 l 1,32,-1
386 417 m 0,47,48
 386 453 386 453 366.5 468.5 c 128,-1,49
 347 484 347 484 310 484 c 2,50,-1
 262 484 l 1,51,-1
 262 348 l 1,52,-1
 315 348 l 2,53,46
 386 348 386 348 386 417 c 0,47,48
EndSplineSet
EndChar
StartChar: degree
Encoding: 176 176 295
Width: 632
GlyphClass: 1
Flags: W
LayerCount: 2
Fore
SplineSet
254.5 451.5 m 128,-1,1
 226 468 226 468 209.5 496 c 128,-1,2
 193 524 193 524 193 557 c 0,3,4
 193 591 193 591 209.5 619.5 c 128,-1,5
 226 648 226 648 254.5 664.5 c 128,-1,6
 283 681 283 681 316 681 c 256,7,8
 349 681 349 681 377.5 664.5 c 128,-1,9
 406 648 406 648 422.5 619.5 c 128,-1,10
 439 591 439 591 439 557 c 0,11,12
 439 524 439 524 422.5 496 c 128,-1,13
 406 468 406 468 377.5 451.5 c 128,-1,14
 349 435 349 435 316 435 c 256,15,0
 283 435 283 435 254.5 451.5 c 128,-1,1
372 501.5 m 128,-1,17
 395 525 395 525 395 557 c 0,18,19
 395 591 395 591 372 613.5 c 128,-1,20
 349 636 349 636 316 636 c 256,21,22
 283 636 283 636 260 613 c 128,-1,23
 237 590 237 590 237 557 c 0,24,25
 237 525 237 525 260.5 501.5 c 128,-1,26
 284 478 284 478 316 478 c 0,27,16
 349 478 349 478 372 501.5 c 128,-1,17
EndSplineSet
EndChar
StartChar: uni00B2
Encoding: 178 178 245
Width: 632
GlyphClass: 1
Flags: W
LayerCount: 2
Fore
SplineSet
300.5 519 m 128,-1,1
 346 564 346 564 369 602 c 128,-1,2
 392 640 392 640 392 677 c 0,3,4
 392 708 392 708 371 726.5 c 128,-1,5
 350 745 350 745 317 745 c 0,6,7
 288 745 288 745 265.5 728 c 128,-1,8
 243 711 243 711 239 673 c 1,9,-1
 187 681 l 1,10,11
 195 729 195 729 229.5 757.5 c 128,-1,12
 264 786 264 786 320 786 c 0,13,14
 375 786 375 786 410.5 755.5 c 128,-1,15
 446 725 446 725 446 678 c 0,16,17
 446 619 446 619 394 553.5 c 128,-1,18
 342 488 342 488 237 408 c 1,19,-1
 459 408 l 1,20,-1
 459 364 l 1,21,-1
 174 364 l 1,22,-1
 174 406 l 1,23,0
 255 474 255 474 300.5 519 c 128,-1,1
EndSplineSet
EndChar
StartChar: uni00B3
Encoding: 179 179 246
Width: 632
GlyphClass: 1
Flags: W
LayerCount: 2
Fore
SplineSet
220.5 386 m 128,-1,1
 185 415 185 415 175 460 c 1,2,-1
 222 469 l 1,3,4
 243 398 243 398 313 398 c 0,5,6
 352 398 352 398 379.5 419 c 128,-1,7
 407 440 407 440 407 476 c 0,8,9
 407 523 407 523 378 543.5 c 128,-1,10
 349 564 349 564 302 564 c 0,11,12
 292 564 292 564 272 562 c 1,13,-1
 272 602 l 1,14,15
 290 600 290 600 300 600 c 0,16,17
 343 600 343 600 370 618.5 c 128,-1,18
 397 637 397 637 397 678 c 0,19,20
 397 712 397 712 374 728.5 c 128,-1,21
 351 745 351 745 318 745 c 0,22,23
 280 745 280 745 258 728 c 128,-1,24
 236 711 236 711 227 677 c 1,25,-1
 180 686 l 1,26,27
 192 731 192 731 229 758.5 c 128,-1,28
 266 786 266 786 322 786 c 0,29,30
 370 786 370 786 410 758.5 c 128,-1,31
 450 731 450 731 450 675 c 0,32,33
 450 647 450 647 433 623 c 128,-1,34
 416 599 416 599 388 583 c 1,35,36
 422 569 422 569 440 541 c 128,-1,37
 458 513 458 513 458 483 c 0,38,39
 458 421 458 421 416.5 389 c 128,-1,40
 375 357 375 357 314 357 c 0,41,0
 256 357 256 357 220.5 386 c 128,-1,1
EndSplineSet
EndChar
StartChar: paragraph
Encoding: 182 182 290
Width: 632
GlyphClass: 1
Flags: W
LayerCount: 2
Fore
SplineSet
148.5 355.5 m 128,-1,1
 100 407 100 407 100 479 c 0,2,3
 100 531 100 531 127 574.5 c 128,-1,4
 154 618 154 618 204 643 c 128,-1,5
 254 668 254 668 319 668 c 2,6,-1
 542 668 l 1,7,-1
 542 621 l 1,8,-1
 505 621 l 1,9,-1
 505 -162 l 1,10,-1
 451 -162 l 1,11,-1
 451 621 l 1,12,-1
 337 621 l 1,13,-1
 337 -162 l 1,14,-1
 283 -162 l 1,15,-1
 283 292 l 1,16,0
 197 304 197 304 148.5 355.5 c 128,-1,1
EndSplineSet
EndChar
StartChar: ordmasculine
Encoding: 186 186 224
Width: 632
GlyphClass: 1
Flags: W
LayerCount: 2
Fore
SplineSet
237.5 355 m 128,-1,1
 202 375 202 375 180 415.5 c 128,-1,2
 158 456 158 456 158 514 c 0,3,4
 158 571 158 571 180 611.5 c 128,-1,5
 202 652 202 652 238 672.5 c 128,-1,6
 274 693 274 693 315 693 c 0,7,8
 357 693 357 693 393 672.5 c 128,-1,9
 429 652 429 652 451.5 611.5 c 128,-1,10
 474 571 474 571 474 514 c 0,11,12
 474 456 474 456 451.5 415.5 c 128,-1,13
 429 375 429 375 393 355 c 128,-1,14
 357 335 357 335 315 335 c 256,15,0
 273 335 273 335 237.5 355 c 128,-1,1
393.5 414 m 128,-1,17
 423 451 423 451 423 514 c 256,18,19
 423 577 423 577 393.5 614 c 128,-1,20
 364 651 364 651 315 651 c 0,21,22
 267 651 267 651 238 614 c 128,-1,23
 209 577 209 577 209 514 c 256,24,25
 209 451 209 451 238 414 c 128,-1,26
 267 377 267 377 315 377 c 0,27,16
 364 377 364 377 393.5 414 c 128,-1,17
EndSplineSet
EndChar
StartChar: guillemotright
Encoding: 187 187 281
Width: 632
GlyphClass: 1
Flags: W
LayerCount: 2
Fore
SplineSet
455 250 m 1,0,-1
 307 460 l 1,1,-1
 370 460 l 1,2,-1
 518 250 l 1,3,-1
 370 40 l 1,4,-1
 307 40 l 1,5,-1
 455 250 l 1,0,-1
262 250 m 1,6,-1
 114 460 l 1,7,-1
 177 460 l 1,8,-1
 325 250 l 1,9,-1
 177 40 l 1,10,-1
 114 40 l 1,11,-1
 262 250 l 1,6,-1
EndSplineSet
EndChar
StartChar: AE
Encoding: 198 198 12
Width: 632
GlyphClass: 2
Flags: W
AnchorPoint: "Anchor-1" 315 668 basechar 0
AnchorPoint: "Anchor-0" 315 0 basechar 0
LayerCount: 2
Fore
SplineSet
272 668 m 1,0,-1
 617 668 l 1,1,-1
 617 619 l 1,2,-1
 364 619 l 1,3,-1
 364 369 l 1,4,-1
 567 369 l 1,5,-1
 567 319 l 1,6,-1
 364 319 l 1,7,-1
 364 49 l 1,8,-1
 620 49 l 1,9,-1
 620 0 l 1,10,-1
 307 0 l 1,11,-1
 307 167 l 1,12,-1
 126 167 l 1,13,-1
 61 0 l 1,14,-1
 5 0 l 1,15,-1
 272 668 l 1,0,-1
307 216 m 1,16,-1
 307 621 l 1,17,-1
 303 621 l 1,18,-1
 145 216 l 1,19,-1
 307 216 l 1,16,-1
EndSplineSet
EndChar
StartChar: Ccedilla
Encoding: 199 199 17
Width: 632
GlyphClass: 2
Flags: W
AnchorPoint: "Anchor-1" 337 668 basechar 0
LayerCount: 2
Fore
SplineSet
283.5 -170.5 m 128,-1,1
 261 -164 261 -164 244 -153 c 1,2,-1
 258 -128 l 1,3,4
 278 -138 278 -138 292.5 -141.5 c 128,-1,5
 307 -145 307 -145 323 -145 c 0,6,7
 348 -145 348 -145 359.5 -133 c 128,-1,8
 371 -121 371 -121 371 -107 c 0,9,10
 371 -77 371 -77 330 -77 c 0,11,12
 322 -77 322 -77 307 -80 c 128,-1,13
 292 -83 292 -83 288 -83 c 0,14,15
 274 -83 274 -83 274 -70 c 0,16,17
 274 -63 274 -63 279 -55 c 2,18,-1
 306 -11 l 1,19,20
 231 -3 231 -3 174 43.5 c 128,-1,21
 117 90 117 90 85.5 166 c 128,-1,22
 54 242 54 242 54 336 c 0,23,24
 54 435 54 435 90.5 513.5 c 128,-1,25
 127 592 127 592 192.5 636 c 128,-1,26
 258 680 258 680 340 680 c 0,27,28
 416 680 416 680 479.5 641.5 c 128,-1,29
 543 603 543 603 574 531 c 1,30,-1
 524 511 l 1,31,32
 500 564 500 564 453 597 c 128,-1,33
 406 630 406 630 339 630 c 0,34,35
 278 630 278 630 226.5 596 c 128,-1,36
 175 562 175 562 144 495.5 c 128,-1,37
 113 429 113 429 113 336 c 256,38,39
 113 243 113 243 144 175.5 c 128,-1,40
 175 108 175 108 226.5 73 c 128,-1,41
 278 38 278 38 339 38 c 0,42,43
 407 38 407 38 453 71 c 128,-1,44
 499 104 499 104 526 157 c 1,45,-1
 577 137 l 1,46,47
 543 65 543 65 483 27.5 c 128,-1,48
 423 -10 423 -10 343 -12 c 1,49,-1
 320 -48 l 1,50,51
 337 -44 337 -44 351 -44 c 0,52,53
 380 -44 380 -44 397 -60.5 c 128,-1,54
 414 -77 414 -77 414 -99 c 0,55,56
 414 -127 414 -127 390.5 -152 c 128,-1,57
 367 -177 367 -177 325 -177 c 0,58,0
 306 -177 306 -177 283.5 -170.5 c 128,-1,1
EndSplineSet
EndChar
StartChar: Eth
Encoding: 208 208 22
Width: 632
GlyphClass: 1
Flags: W
LayerCount: 2
Fore
SplineSet
77 326 m 1,0,-1
 22 326 l 1,1,-1
 22 376 l 1,2,-1
 77 376 l 1,3,-1
 77 668 l 1,4,-1
 241 668 l 2,5,6
 406 668 406 668 498.5 589 c 128,-1,7
 591 510 591 510 591 336 c 0,8,9
 591 161 591 161 498 80.5 c 128,-1,10
 405 0 405 0 241 0 c 2,11,-1
 77 0 l 1,12,-1
 77 326 l 1,0,-1
450 110.5 m 128,-1,14
 532 171 532 171 532 336 c 0,15,16
 532 449 532 449 491 511.5 c 128,-1,17
 450 574 450 574 385 596 c 128,-1,18
 320 618 320 618 233 618 c 2,19,-1
 135 618 l 1,20,-1
 135 376 l 1,21,-1
 335 376 l 1,22,-1
 335 326 l 1,23,-1
 135 326 l 1,24,-1
 135 50 l 1,25,-1
 233 50 l 2,26,13
 368 50 368 50 450 110.5 c 128,-1,14
EndSplineSet
EndChar
StartChar: multiply
Encoding: 215 215 313
Width: 632
GlyphClass: 1
Flags: W
LayerCount: 2
Fore
SplineSet
113 81 m 1,0,-1
 280 248 l 1,1,-1
 112 415 l 1,2,-1
 149 452 l 1,3,-1
 316 284 l 1,4,-1
 483 452 l 1,5,-1
 520 415 l 1,6,-1
 352 248 l 1,7,-1
 519 81 l 1,8,-1
 483 45 l 1,9,-1
 316 212 l 1,10,-1
 149 45 l 1,11,-1
 113 81 l 1,0,-1
EndSplineSet
EndChar
StartChar: Oslash
Encoding: 216 216 68
Width: 632
GlyphClass: 2
Flags: W
AnchorPoint: "Anchor-3" 634 668 basechar 0
AnchorPoint: "Anchor-2" 585 10 basechar 0
AnchorPoint: "Anchor-1" 317 668 basechar 0
AnchorPoint: "Anchor-0" 317 0 basechar 0
LayerCount: 2
Fore
SplineSet
132 64 m 1,1,-1
 78 -3 l 1,2,-1
 47 22 l 1,3,-1
 106 97 l 1,4,5
 74 142 74 142 57.5 203 c 128,-1,6
 41 264 41 264 41 334 c 0,7,8
 41 434 41 434 74 512.5 c 128,-1,9
 107 591 107 591 169 635.5 c 128,-1,10
 231 680 231 680 316 680 c 0,11,12
 373 680 373 680 419.5 660 c 128,-1,13
 466 640 466 640 501 603 c 1,14,-1
 555 670 l 1,15,-1
 587 646 l 1,16,-1
 527 570 l 1,17,18
 558 525 558 525 574.5 465 c 128,-1,19
 591 405 591 405 591 334 c 0,20,21
 591 234 591 234 558 155.5 c 128,-1,22
 525 77 525 77 463 32.5 c 128,-1,23
 401 -12 401 -12 316 -12 c 0,24,0
 203 -12 203 -12 132 64 c 1,1,-1
427 72.5 m 128,-1,26
 476 107 476 107 504 173.5 c 128,-1,27
 532 240 532 240 532 334 c 0,28,29
 532 444 532 444 491 523 c 1,30,-1
 165 109 l 1,31,32
 194 74 194 74 232.5 56 c 128,-1,33
 271 38 271 38 316 38 c 0,34,25
 378 38 378 38 427 72.5 c 128,-1,26
400 612 m 128,-1,36
 361 630 361 630 316 630 c 0,37,38
 254 630 254 630 205 595.5 c 128,-1,39
 156 561 156 561 128 494.5 c 128,-1,40
 100 428 100 428 100 334 c 0,41,42
 100 220 100 220 142 144 c 1,43,-1
 468 558 l 1,44,35
 439 594 439 594 400 612 c 128,-1,36
EndSplineSet
EndChar
StartChar: germandbls
Encoding: 223 223 193
Width: 632
GlyphClass: 1
Flags: W
LayerCount: 2
Fore
SplineSet
297 -13 m 1,1,-1
 282 37 l 1,2,3
 298 35 298 35 327 35 c 0,4,5
 421 35 421 35 472 78 c 128,-1,6
 523 121 523 121 523 205 c 0,7,8
 523 258 523 258 493.5 299.5 c 128,-1,9
 464 341 464 341 413 363.5 c 128,-1,10
 362 386 362 386 301 386 c 2,11,-1
 289 386 l 1,12,-1
 289 435 l 1,13,14
 361 435 361 435 400.5 466 c 128,-1,15
 440 497 440 497 440 539 c 0,16,17
 440 578 440 578 401.5 604.5 c 128,-1,18
 363 631 363 631 304 631 c 0,19,20
 237 631 237 631 195 592 c 128,-1,21
 153 553 153 553 153 467 c 2,22,-1
 153 0 l 1,23,-1
 97 0 l 1,24,-1
 97 469 l 2,25,26
 97 564 97 564 150 622 c 128,-1,27
 203 680 203 680 306 680 c 0,28,29
 362 680 362 680 405 660.5 c 128,-1,30
 448 641 448 641 471.5 609 c 128,-1,31
 495 577 495 577 495 540 c 0,32,33
 495 451 495 451 397 416 c 1,34,35
 479 399 479 399 529 343 c 128,-1,36
 579 287 579 287 579 205 c 0,37,38
 579 97 579 97 509 41.5 c 128,-1,39
 439 -14 439 -14 327 -14 c 0,40,0
 307 -14 307 -14 297 -13 c 1,1,-1
EndSplineSet
EndChar
StartChar: ae
Encoding: 230 230 122
Width: 632
GlyphClass: 2
Flags: W
AnchorPoint: "Anchor-1" 315 496 basechar 0
AnchorPoint: "Anchor-0" 315 0 basechar 0
LayerCount: 2
Fore
SplineSet
47.5 22.5 m 128,-1,1
 10 57 10 57 10 117 c 0,2,3
 10 168 10 168 33.5 202.5 c 128,-1,4
 57 237 57 237 114 258 c 128,-1,5
 171 279 171 279 270 286 c 1,6,-1
 270 318 l 2,7,8
 270 463 270 463 177 463 c 0,9,10
 141 463 141 463 118 438 c 128,-1,11
 95 413 95 413 85 373 c 1,12,-1
 32 385 l 1,13,14
 51 444 51 444 89.5 475 c 128,-1,15
 128 506 128 506 178 506 c 256,16,17
 228 506 228 506 260.5 480.5 c 128,-1,18
 293 455 293 455 307 406 c 1,19,20
 331 454 331 454 367.5 480 c 128,-1,21
 404 506 404 506 449 506 c 0,22,23
 508 506 508 506 547.5 468.5 c 128,-1,24
 587 431 587 431 604.5 370.5 c 128,-1,25
 622 310 622 310 617 243 c 1,26,-1
 319 243 l 1,27,28
 319 167 319 167 340.5 120 c 128,-1,29
 362 73 362 73 393.5 53 c 128,-1,30
 425 33 425 33 457 33 c 0,31,32
 488 33 488 33 510 49 c 128,-1,33
 532 65 532 65 552 100 c 1,34,-1
 598 83 l 1,35,36
 575 39 575 39 540.5 13.5 c 128,-1,37
 506 -12 506 -12 452 -12 c 0,38,39
 397 -12 397 -12 358 17.5 c 128,-1,40
 319 47 319 47 297 99 c 1,41,42
 276 43 276 43 240 15.5 c 128,-1,43
 204 -12 204 -12 147 -12 c 0,44,0
 85 -12 85 -12 47.5 22.5 c 128,-1,1
237 70 m 128,-1,46
 270 109 270 109 270 195 c 2,47,-1
 270 243 l 1,48,49
 152 235 152 235 107 204.5 c 128,-1,50
 62 174 62 174 62 118 c 0,51,52
 62 80 62 80 85.5 55.5 c 128,-1,53
 109 31 109 31 151 31 c 0,54,45
 204 31 204 31 237 70 c 128,-1,46
534.5 408 m 128,-1,56
 506 461 506 461 447 461 c 0,57,58
 399 461 399 461 364.5 419 c 128,-1,59
 330 377 330 377 321 286 c 1,60,-1
 563 286 l 1,61,55
 563 355 563 355 534.5 408 c 128,-1,56
EndSplineSet
EndChar
StartChar: ccedilla
Encoding: 231 231 127
Width: 632
GlyphClass: 2
Flags: W
AnchorPoint: "Anchor-1" 346 496 basechar 0
LayerCount: 2
Fore
SplineSet
293.5 -170.5 m 128,-1,1
 271 -164 271 -164 254 -153 c 1,2,-1
 268 -128 l 1,3,4
 301 -145 301 -145 333 -145 c 0,5,6
 357 -145 357 -145 369 -132.5 c 128,-1,7
 381 -120 381 -120 381 -107 c 0,8,9
 381 -77 381 -77 340 -77 c 0,10,11
 332 -77 332 -77 317 -80 c 128,-1,12
 302 -83 302 -83 298 -83 c 0,13,14
 284 -83 284 -83 284 -70 c 0,15,16
 284 -63 284 -63 289 -55 c 2,17,-1
 316 -11 l 1,18,19
 252 -5 252 -5 203 29.5 c 128,-1,20
 154 64 154 64 127 119.5 c 128,-1,21
 100 175 100 175 100 243 c 0,22,23
 100 316 100 316 129.5 376 c 128,-1,24
 159 436 159 436 215.5 471 c 128,-1,25
 272 506 272 506 349 506 c 0,26,27
 415 506 415 506 464.5 477 c 128,-1,28
 514 448 514 448 543 398 c 1,29,-1
 492 378 l 1,30,31
 472 416 472 416 434 436.5 c 128,-1,32
 396 457 396 457 346 457 c 0,33,34
 295 457 295 457 252 433.5 c 128,-1,35
 209 410 209 410 183 362 c 128,-1,36
 157 314 157 314 157 245 c 0,37,38
 157 177 157 177 182.5 130.5 c 128,-1,39
 208 84 208 84 250.5 60.5 c 128,-1,40
 293 37 293 37 343 37 c 0,41,42
 395 37 395 37 435.5 58 c 128,-1,43
 476 79 476 79 495 114 c 1,44,-1
 548 94 l 1,45,46
 523 52 523 52 473 21.5 c 128,-1,47
 423 -9 423 -9 353 -12 c 1,48,-1
 330 -48 l 1,49,50
 347 -44 347 -44 361 -44 c 0,51,52
 390 -44 390 -44 407 -60.5 c 128,-1,53
 424 -77 424 -77 424 -99 c 0,54,55
 424 -127 424 -127 400.5 -152 c 128,-1,56
 377 -177 377 -177 335 -177 c 0,57,0
 316 -177 316 -177 293.5 -170.5 c 128,-1,1
EndSplineSet
EndChar
StartChar: eth
Encoding: 240 240 132
Width: 632
GlyphClass: 1
Flags: W
LayerCount: 2
Fore
SplineSet
185.5 15.5 m 128,-1,1
 130 43 130 43 95.5 97 c 128,-1,2
 61 151 61 151 61 226 c 256,3,4
 61 301 61 301 95 355 c 128,-1,5
 129 409 129 409 184 436.5 c 128,-1,6
 239 464 239 464 299 464 c 0,7,8
 369 464 369 464 427.5 429.5 c 128,-1,9
 486 395 486 395 503 337 c 1,10,11
 498 439 498 439 478.5 498 c 128,-1,12
 459 557 459 557 424 593 c 1,13,-1
 363 534 l 1,14,-1
 334 562 l 1,15,-1
 391 618 l 1,16,17
 362 639 362 639 318.5 654.5 c 128,-1,18
 275 670 275 670 223 670 c 0,19,20
 204 670 204 670 195 669 c 1,21,-1
 195 715 l 1,22,23
 206 716 206 716 226 716 c 0,24,25
 333 716 333 716 427 656 c 1,26,-1
 469 696 l 1,27,-1
 497 668 l 1,28,-1
 460 630 l 1,29,30
 511 577 511 577 532.5 503 c 128,-1,31
 554 429 554 429 554 324 c 0,32,33
 554 175 554 175 495.5 81.5 c 128,-1,34
 437 -12 437 -12 303 -12 c 0,35,0
 241 -12 241 -12 185.5 15.5 c 128,-1,1
393.5 58.5 m 128,-1,37
 436 80 436 80 462 122 c 128,-1,38
 488 164 488 164 488 224 c 0,39,40
 488 285 488 285 461.5 328 c 128,-1,41
 435 371 435 371 392.5 392.5 c 128,-1,42
 350 414 350 414 302 414 c 256,43,44
 254 414 254 414 212 392.5 c 128,-1,45
 170 371 170 371 144 328.5 c 128,-1,46
 118 286 118 286 118 226 c 256,47,48
 118 166 118 166 144.5 123 c 128,-1,49
 171 80 171 80 213 58.5 c 128,-1,50
 255 37 255 37 303 37 c 256,51,36
 351 37 351 37 393.5 58.5 c 128,-1,37
EndSplineSet
EndChar
StartChar: divide
Encoding: 247 247 314
Width: 632
GlyphClass: 1
Flags: W
LayerCount: 2
Fore
SplineSet
68 274 m 1,0,-1
 564 274 l 1,1,-1
 564 222 l 1,2,-1
 68 222 l 1,3,-1
 68 274 l 1,0,-1
275.5 43.5 m 128,-1,5
 259 60 259 60 259 85 c 0,6,7
 259 108 259 108 275.5 124.5 c 128,-1,8
 292 141 292 141 316 141 c 256,9,10
 340 141 340 141 356 124.5 c 128,-1,11
 372 108 372 108 372 85 c 0,12,13
 372 60 372 60 356 43.5 c 128,-1,14
 340 27 340 27 316 27 c 256,15,4
 292 27 292 27 275.5 43.5 c 128,-1,5
275.5 371.5 m 128,-1,17
 259 387 259 387 259 411 c 0,18,19
 259 436 259 436 275.5 453 c 128,-1,20
 292 470 292 470 316 470 c 256,21,22
 340 470 340 470 356 453 c 128,-1,23
 372 436 372 436 372 411 c 0,24,25
 372 387 372 387 356 371.5 c 128,-1,26
 340 356 340 356 316 356 c 256,27,16
 292 356 292 356 275.5 371.5 c 128,-1,17
EndSplineSet
EndChar
StartChar: oslash
Encoding: 248 248 179
Width: 632
GlyphClass: 2
Flags: W
AnchorPoint: "Anchor-3" 592 496 basechar 0
AnchorPoint: "Anchor-2" 555 10 basechar 0
AnchorPoint: "Anchor-1" 316 496 basechar 0
AnchorPoint: "Anchor-0" 316 0 basechar 0
LayerCount: 2
Fore
SplineSet
229 3 m 128,-1,1
 186 18 186 18 152 47 c 1,2,-1
 106 -2 l 1,3,-1
 79 26 l 1,4,-1
 125 75 l 1,5,6
 70 143 70 143 70 247 c 0,7,8
 70 333 70 333 106 391.5 c 128,-1,9
 142 450 142 450 198 478 c 128,-1,10
 254 506 254 506 316 506 c 0,11,12
 360 506 360 506 402.5 491.5 c 128,-1,13
 445 477 445 477 479 448 c 1,14,-1
 526 498 l 1,15,-1
 553 470 l 1,16,-1
 506 420 l 1,17,18
 562 352 562 352 562 247 c 0,19,20
 562 161 562 161 526 102.5 c 128,-1,21
 490 44 490 44 434 16 c 128,-1,22
 378 -12 378 -12 316 -12 c 0,23,0
 272 -12 272 -12 229 3 c 128,-1,1
410 60 m 128,-1,25
 453 83 453 83 479 130.5 c 128,-1,26
 505 178 505 178 505 247 c 0,27,28
 505 331 505 331 468 380 c 1,29,-1
 188 85 l 1,30,31
 214 61 214 61 247 49 c 128,-1,32
 280 37 280 37 316 37 c 0,33,24
 367 37 367 37 410 60 c 128,-1,25
316 457 m 0,35,36
 265 457 265 457 222 434 c 128,-1,37
 179 411 179 411 153 363.5 c 128,-1,38
 127 316 127 316 127 247 c 0,39,40
 127 165 127 165 163 115 c 1,41,-1
 443 410 l 1,42,34
 392 457 392 457 316 457 c 0,35,36
EndSplineSet
EndChar
StartChar: thorn
Encoding: 254 254 183
Width: 632
GlyphClass: 2
Flags: W
AnchorPoint: "Anchor-1" 314 496 basechar 0
AnchorPoint: "Anchor-0" 314 0 basechar 0
LayerCount: 2
Fore
SplineSet
99 708 m 1,0,-1
 155 708 l 1,1,-1
 155 405 l 1,2,3
 182 451 182 451 230 478.5 c 128,-1,4
 278 506 278 506 340 506 c 0,5,6
 409 506 409 506 462 475 c 128,-1,7
 515 444 515 444 544 386 c 128,-1,8
 573 328 573 328 573 247 c 256,9,10
 573 166 573 166 544 108 c 128,-1,11
 515 50 515 50 462 19 c 128,-1,12
 409 -12 409 -12 340 -12 c 0,13,14
 276 -12 276 -12 228.5 15.5 c 128,-1,15
 181 43 181 43 155 85 c 1,16,-1
 155 -162 l 1,17,-1
 99 -162 l 1,18,-1
 99 708 l 1,0,-1
467 92.5 m 128,-1,20
 516 148 516 148 516 247 c 256,21,22
 516 346 516 346 467 401.5 c 128,-1,23
 418 457 418 457 334 457 c 0,24,25
 252 457 252 457 203.5 400.5 c 128,-1,26
 155 344 155 344 155 247 c 0,27,28
 155 151 155 151 204 94 c 128,-1,29
 253 37 253 37 334 37 c 0,30,19
 418 37 418 37 467 92.5 c 128,-1,20
EndSplineSet
EndChar
StartChar: Aogonek
Encoding: 260 260 9
Width: 632
GlyphClass: 2
Flags: W
AnchorPoint: "Anchor-1" 316 668 basechar 0
LayerCount: 2
Fore
SplineSet
286 668 m 1,0,-1
 347 668 l 1,1,-1
 597 0 l 1,2,3
 558 -13 558 -13 535 -35.5 c 128,-1,4
 512 -58 512 -58 512 -84 c 0,5,6
 512 -105 512 -105 526.5 -115.5 c 128,-1,7
 541 -126 541 -126 562 -126 c 0,8,9
 578 -126 578 -126 597 -119 c 1,10,-1
 597 -159 l 1,11,12
 583 -165 583 -165 572.5 -166.5 c 128,-1,13
 562 -168 562 -168 548 -168 c 0,14,15
 511 -168 511 -168 488 -148 c 128,-1,16
 465 -128 465 -128 465 -94 c 0,17,18
 465 -33 465 -33 536 5 c 1,19,-1
 478 167 l 1,20,-1
 154 167 l 1,21,-1
 93 0 l 1,22,-1
 35 0 l 1,23,-1
 286 668 l 1,0,-1
459 217 m 1,24,-1
 318 607 l 1,25,-1
 314 607 l 1,26,-1
 171 217 l 1,27,-1
 459 217 l 1,24,-1
EndSplineSet
EndChar
StartChar: aogonek
Encoding: 261 261 119
Width: 632
GlyphClass: 2
Flags: W
AnchorPoint: "Anchor-1" 310 496 basechar 0
LayerCount: 2
Fore
SplineSet
407 -148 m 128,-1,1
 384 -128 384 -128 384 -94 c 256,2,3
 384 -60 384 -60 404.5 -35 c 128,-1,4
 425 -10 425 -10 467 11 c 1,5,-1
 450 81 l 1,6,7
 432 41 432 41 386.5 14.5 c 128,-1,8
 341 -12 341 -12 265 -12 c 0,9,10
 184 -12 184 -12 135.5 23 c 128,-1,11
 87 58 87 58 87 122 c 0,12,13
 87 210 87 210 172.5 252.5 c 128,-1,14
 258 295 258 295 443 308 c 1,15,-1
 443 318 l 2,16,17
 443 459 443 459 310 459 c 0,18,19
 255 459 255 459 220 435 c 128,-1,20
 185 411 185 411 176 372 c 1,21,-1
 118 385 l 1,22,23
 137 444 137 444 188 475 c 128,-1,24
 239 506 239 506 309 506 c 0,25,26
 406 506 406 506 452 457.5 c 128,-1,27
 498 409 498 409 498 314 c 2,28,-1
 498 194 l 2,29,30
 498 79 498 79 516 0 c 1,31,32
 477 -13 477 -13 454 -35.5 c 128,-1,33
 431 -58 431 -58 431 -84 c 0,34,35
 431 -105 431 -105 445 -115.5 c 128,-1,36
 459 -126 459 -126 482 -126 c 0,37,38
 500 -126 500 -126 516 -119 c 1,39,-1
 516 -159 l 1,40,41
 494 -168 494 -168 467 -168 c 0,42,0
 430 -168 430 -168 407 -148 c 128,-1,1
395.5 74.5 m 128,-1,44
 443 113 443 113 443 195 c 2,45,-1
 443 262 l 1,46,47
 288 251 288 251 216 219.5 c 128,-1,48
 144 188 144 188 144 125 c 0,49,50
 144 85 144 85 177.5 60.5 c 128,-1,51
 211 36 211 36 269 36 c 0,52,43
 348 36 348 36 395.5 74.5 c 128,-1,44
EndSplineSet
EndChar
StartChar: dcaron
Encoding: 271 271 130
Width: 632
GlyphClass: 1
Flags: W
LayerCount: 2
Fore
SplineSet
144 18.5 m 128,-1,1
 96 49 96 49 69.5 107.5 c 128,-1,2
 43 166 43 166 43 247 c 256,3,4
 43 328 43 328 69.5 386.5 c 128,-1,5
 96 445 96 445 144 475.5 c 128,-1,6
 192 506 192 506 256 506 c 0,7,8
 358 506 358 506 417 407 c 1,9,-1
 417 708 l 1,10,-1
 473 708 l 1,11,-1
 473 183 l 2,12,13
 473 89 473 89 490 0 c 1,14,-1
 438 0 l 1,15,-1
 416 83 l 1,16,17
 352 -12 352 -12 256 -12 c 0,18,0
 192 -12 192 -12 144 18.5 c 128,-1,1
375.5 94 m 128,-1,20
 418 151 418 151 418 247 c 256,21,22
 418 343 418 343 375.5 400 c 128,-1,23
 333 457 333 457 262 457 c 0,24,25
 188 457 188 457 144 401.5 c 128,-1,26
 100 346 100 346 100 247 c 256,27,28
 100 148 100 148 144 92.5 c 128,-1,29
 188 37 188 37 262 37 c 0,30,19
 333 37 333 37 375.5 94 c 128,-1,20
551.5 709 m 128,-1,32
 558 720 558 720 572 720 c 0,33,34
 583 720 583 720 591.5 714 c 128,-1,35
 600 708 600 708 600 694 c 0,36,37
 600 684 600 684 589 654 c 2,38,-1
 554 542 l 1,39,-1
 523 542 l 1,40,-1
 541 671 l 2,41,31
 545 698 545 698 551.5 709 c 128,-1,32
EndSplineSet
EndChar
StartChar: Eogonek
Encoding: 280 280 31
Width: 632
GlyphClass: 2
Flags: W
AnchorPoint: "Anchor-1" 281 668 basechar 0
LayerCount: 2
Fore
SplineSet
136 668 m 1,0,-1
 534 668 l 1,1,-1
 534 618 l 1,2,-1
 194 618 l 1,3,-1
 194 369 l 1,4,-1
 469 369 l 1,5,-1
 469 319 l 1,6,-1
 194 319 l 1,7,-1
 194 50 l 1,8,-1
 538 50 l 1,9,-1
 538 0 l 1,10,11
 498 -13 498 -13 475 -35.5 c 128,-1,12
 452 -58 452 -58 452 -84 c 0,13,14
 452 -105 452 -105 466.5 -115.5 c 128,-1,15
 481 -126 481 -126 502 -126 c 0,16,17
 517 -126 517 -126 538 -119 c 1,18,-1
 538 -159 l 1,19,20
 516 -168 516 -168 489 -168 c 0,21,22
 452 -168 452 -168 429 -148 c 128,-1,23
 406 -128 406 -128 406 -94 c 0,24,25
 406 -37 406 -37 468 0 c 1,26,-1
 136 0 l 1,27,-1
 136 668 l 1,0,-1
EndSplineSet
EndChar
StartChar: eogonek
Encoding: 281 281 141
Width: 632
GlyphClass: 2
Flags: W
AnchorPoint: "Anchor-1" 261 496 basechar 0
LayerCount: 2
Fore
SplineSet
366 -148 m 128,-1,1
 343 -128 343 -128 343 -94 c 0,2,3
 343 -71 343 -71 353 -48 c 128,-1,4
 363 -25 363 -25 380 -7 c 1,5,6
 348 -12 348 -12 324 -12 c 0,7,8
 254 -12 254 -12 199 19.5 c 128,-1,9
 144 51 144 51 113.5 109 c 128,-1,10
 83 167 83 167 83 245 c 256,11,12
 83 323 83 323 113.5 382.5 c 128,-1,13
 144 442 144 442 198 474 c 128,-1,14
 252 506 252 506 321 506 c 0,15,16
 395 506 395 506 448.5 468.5 c 128,-1,17
 502 431 502 431 527.5 370.5 c 128,-1,18
 553 310 553 310 548 243 c 1,19,-1
 140 243 l 1,20,21
 141 168 141 168 169.5 122 c 128,-1,22
 198 76 198 76 240.5 56.5 c 128,-1,23
 283 37 283 37 328 37 c 0,24,25
 420 37 420 37 464 101 c 1,26,-1
 520 81 l 1,27,28
 493 42 493 42 443 11 c 0,29,30
 417 -6 417 -6 403 -29.5 c 128,-1,31
 389 -53 389 -53 389 -78 c 0,32,33
 389 -101 389 -101 405 -113.5 c 128,-1,34
 421 -126 421 -126 443 -126 c 0,35,36
 462 -126 462 -126 475 -119 c 1,37,-1
 475 -159 l 1,38,39
 453 -168 453 -168 426 -168 c 0,40,0
 389 -168 389 -168 366 -148 c 128,-1,1
469 367.5 m 128,-1,42
 450 406 450 406 412.5 431.5 c 128,-1,43
 375 457 375 457 321 457 c 0,44,45
 251 457 251 457 202 416.5 c 128,-1,46
 153 376 153 376 142 289 c 1,47,-1
 489 289 l 1,48,41
 488 329 488 329 469 367.5 c 128,-1,42
EndSplineSet
EndChar
StartChar: uni0123
Encoding: 291 291 145
Width: 632
GlyphClass: 2
Flags: W
AnchorPoint: "Anchor-1" 337 755 basechar 0
AnchorPoint: "Anchor-0" 315 -251 basechar 0
LayerCount: 2
Fore
SplineSet
179.5 -157.5 m 128,-1,1
 122 -129 122 -129 108 -72 c 1,2,-1
 164 -57 l 1,3,4
 174 -94 174 -94 213.5 -115 c 128,-1,5
 253 -136 253 -136 313 -136 c 0,6,7
 387 -136 387 -136 431.5 -102 c 128,-1,8
 476 -68 476 -68 476 0 c 2,9,-1
 476 97 l 1,10,11
 448 54 448 54 402.5 29 c 128,-1,12
 357 4 357 4 295 4 c 0,13,14
 228 4 228 4 176 34 c 128,-1,15
 124 64 124 64 95 120.5 c 128,-1,16
 66 177 66 177 66 254 c 256,17,18
 66 331 66 331 95 388 c 128,-1,19
 124 445 124 445 176 475.5 c 128,-1,20
 228 506 228 506 295 506 c 0,21,22
 357 506 357 506 403.5 479 c 128,-1,23
 450 452 450 452 476 407 c 1,24,-1
 490 496 l 1,25,-1
 532 496 l 1,26,-1
 532 -3 l 2,27,28
 532 -88 532 -88 471.5 -137 c 128,-1,29
 411 -186 411 -186 311 -186 c 0,30,0
 237 -186 237 -186 179.5 -157.5 c 128,-1,1
428.5 108 m 128,-1,32
 476 162 476 162 476 253 c 0,33,34
 476 345 476 345 428 401 c 128,-1,35
 380 457 380 457 301 457 c 0,36,37
 220 457 220 457 171.5 402.5 c 128,-1,38
 123 348 123 348 123 253 c 0,39,40
 123 159 123 159 171.5 106.5 c 128,-1,41
 220 54 220 54 301 54 c 0,42,31
 381 54 381 54 428.5 108 c 128,-1,32
282.5 610 m 128,-1,44
 273 628 273 628 273 650 c 0,45,46
 273 695 273 695 302.5 724 c 128,-1,47
 332 753 332 753 370 755 c 1,48,-1
 401 730 l 1,49,50
 369 727 369 727 344 709.5 c 128,-1,51
 319 692 319 692 319 658 c 0,52,53
 319 639 319 639 328.5 622 c 128,-1,54
 338 605 338 605 357 593 c 1,55,-1
 313 575 l 1,56,43
 292 592 292 592 282.5 610 c 128,-1,44
EndSplineSet
EndChar
StartChar: Hbar
Encoding: 294 294 38
Width: 632
GlyphClass: 1
Flags: W
LayerCount: 2
Fore
SplineSet
65 517 m 1,0,-1
 10 517 l 1,1,-1
 10 564 l 1,2,-1
 65 564 l 1,3,-1
 65 668 l 1,4,-1
 123 668 l 1,5,-1
 123 564 l 1,6,-1
 509 564 l 1,7,-1
 509 668 l 1,8,-1
 567 668 l 1,9,-1
 567 564 l 1,10,-1
 622 564 l 1,11,-1
 622 517 l 1,12,-1
 567 517 l 1,13,-1
 567 0 l 1,14,-1
 509 0 l 1,15,-1
 509 320 l 1,16,-1
 123 320 l 1,17,-1
 123 0 l 1,18,-1
 65 0 l 1,19,-1
 65 517 l 1,0,-1
509 370 m 1,20,-1
 509 517 l 1,21,-1
 123 517 l 1,22,-1
 123 370 l 1,23,-1
 509 370 l 1,20,-1
EndSplineSet
EndChar
StartChar: hbar
Encoding: 295 295 148
Width: 632
GlyphClass: 1
Flags: W
LayerCount: 2
Fore
SplineSet
113 561 m 1,0,-1
 48 561 l 1,1,-1
 48 601 l 1,2,-1
 113 601 l 1,3,-1
 113 708 l 1,4,-1
 169 708 l 1,5,-1
 169 601 l 1,6,-1
 338 601 l 1,7,-1
 338 561 l 1,8,-1
 169 561 l 1,9,-1
 169 419 l 1,10,11
 191 454 191 454 235 480 c 128,-1,12
 279 506 279 506 340 506 c 0,13,14
 430 506 430 506 475.5 457 c 128,-1,15
 521 408 521 408 521 328 c 2,16,-1
 521 0 l 1,17,-1
 465 0 l 1,18,-1
 465 310 l 2,19,20
 465 378 465 378 433 417.5 c 128,-1,21
 401 457 401 457 333 457 c 0,22,23
 260 457 260 457 214.5 408 c 128,-1,24
 169 359 169 359 169 273 c 2,25,-1
 169 0 l 1,26,-1
 113 0 l 1,27,-1
 113 561 l 1,0,-1
EndSplineSet
EndChar
StartChar: Iogonek
Encoding: 302 302 47
Width: 632
GlyphClass: 2
Flags: W
AnchorPoint: "Anchor-1" 316 668 basechar 0
LayerCount: 2
Fore
SplineSet
142 43 m 1,0,-1
 287 43 l 1,1,-1
 287 625 l 1,2,-1
 142 625 l 1,3,-1
 142 668 l 1,4,-1
 490 668 l 1,5,-1
 490 625 l 1,6,-1
 345 625 l 1,7,-1
 345 43 l 1,8,-1
 490 43 l 1,9,-1
 490 0 l 1,10,11
 450 -13 450 -13 427 -35.5 c 128,-1,12
 404 -58 404 -58 404 -84 c 0,13,14
 404 -105 404 -105 418.5 -115.5 c 128,-1,15
 433 -126 433 -126 454 -126 c 0,16,17
 471 -126 471 -126 490 -119 c 1,18,-1
 490 -159 l 1,19,20
 468 -168 468 -168 441 -168 c 0,21,22
 404 -168 404 -168 381 -148 c 128,-1,23
 358 -128 358 -128 358 -94 c 0,24,25
 358 -37 358 -37 420 0 c 1,26,-1
 142 0 l 1,27,-1
 142 43 l 1,0,-1
EndSplineSet
EndChar
StartChar: iogonek
Encoding: 303 303 156
Width: 632
GlyphClass: 2
Flags: W
AnchorPoint: "Anchor-1" 311 697 basechar 0
LayerCount: 2
Fore
SplineSet
115 45 m 1,0,-1
 294 45 l 1,1,-1
 294 451 l 1,2,-1
 140 451 l 1,3,-1
 140 496 l 1,4,-1
 350 496 l 1,5,-1
 350 45 l 1,6,-1
 530 45 l 1,7,-1
 530 0 l 1,8,9
 491 -13 491 -13 468 -35.5 c 128,-1,10
 445 -58 445 -58 445 -84 c 0,11,12
 445 -105 445 -105 459 -115.5 c 128,-1,13
 473 -126 473 -126 496 -126 c 0,14,15
 514 -126 514 -126 530 -119 c 1,16,-1
 530 -159 l 1,17,18
 516 -165 516 -165 505.5 -166.5 c 128,-1,19
 495 -168 495 -168 481 -168 c 0,20,21
 444 -168 444 -168 421 -148 c 128,-1,22
 398 -128 398 -128 398 -94 c 0,23,24
 398 -64 398 -64 413.5 -41.5 c 128,-1,25
 429 -19 429 -19 461 0 c 1,26,-1
 115 0 l 1,27,-1
 115 45 l 1,0,-1
277.5 613.5 m 128,-1,29
 263 628 263 628 263 647 c 0,30,31
 263 667 263 667 277 681.5 c 128,-1,32
 291 696 291 696 311 696 c 256,33,34
 331 696 331 696 345.5 681.5 c 128,-1,35
 360 667 360 667 360 647 c 256,36,37
 360 627 360 627 345.5 613 c 128,-1,38
 331 599 331 599 311 599 c 0,39,28
 292 599 292 599 277.5 613.5 c 128,-1,29
EndSplineSet
EndChar
StartChar: dotlessi
Encoding: 305 305 150
Width: 632
GlyphClass: 2
Flags: W
AnchorPoint: "Anchor-2" 530 10 basechar 0
AnchorPoint: "Anchor-1" 311 496 basechar 0
AnchorPoint: "Anchor-0" 316 0 basechar 0
LayerCount: 2
Fore
SplineSet
115 45 m 1,0,-1
 294 45 l 1,1,-1
 294 451 l 1,2,-1
 140 451 l 1,3,-1
 140 496 l 1,4,-1
 350 496 l 1,5,-1
 350 45 l 1,6,-1
 530 45 l 1,7,-1
 530 0 l 1,8,-1
 115 0 l 1,9,-1
 115 45 l 1,0,-1
EndSplineSet
EndChar
StartChar: lslash
Encoding: 322 322 166
Width: 632
GlyphClass: 1
Flags: W
LayerCount: 2
Fore
SplineSet
259 20.5 m 128,-1,1
 238 41 238 41 238 96 c 2,2,-1
 238 275 l 1,3,-1
 174 233 l 1,4,-1
 174 282 l 1,5,-1
 238 324 l 1,6,-1
 238 663 l 1,7,-1
 123 663 l 1,8,-1
 123 708 l 1,9,-1
 294 708 l 1,10,-1
 294 360 l 1,11,-1
 389 422 l 1,12,-1
 389 373 l 1,13,-1
 294 311 l 1,14,-1
 294 100 l 2,15,16
 294 69 294 69 303 59 c 128,-1,17
 312 49 312 49 344 49 c 2,18,-1
 529 49 l 1,19,-1
 529 0 l 1,20,-1
 338 0 l 2,21,0
 280 0 280 0 259 20.5 c 128,-1,1
EndSplineSet
EndChar
StartChar: OE
Encoding: 338 338 70
Width: 632
GlyphClass: 2
Flags: W
AnchorPoint: "Anchor-1" 316 668 basechar 0
AnchorPoint: "Anchor-0" 316 0 basechar 0
LayerCount: 2
Fore
SplineSet
59 81 m 128,-1,1
 8 174 8 174 8 334 c 256,2,3
 8 494 8 494 59 587 c 128,-1,4
 110 680 110 680 204 680 c 0,5,6
 301 680 301 680 352 578 c 1,7,-1
 352 668 l 1,8,-1
 614 668 l 1,9,-1
 614 619 l 1,10,-1
 410 619 l 1,11,-1
 410 369 l 1,12,-1
 568 369 l 1,13,-1
 568 319 l 1,14,-1
 410 319 l 1,15,-1
 410 49 l 1,16,-1
 617 49 l 1,17,-1
 617 0 l 1,18,-1
 352 0 l 1,19,-1
 352 89 l 1,20,21
 301 -12 301 -12 203 -12 c 0,22,0
 110 -12 110 -12 59 81 c 128,-1,1
313 112.5 m 128,-1,24
 352 188 352 188 352 334 c 0,25,26
 352 481 352 481 313 556 c 128,-1,27
 274 631 274 631 208 631 c 0,28,29
 144 631 144 631 105 556 c 128,-1,30
 66 481 66 481 66 334 c 256,31,32
 66 187 66 187 105 112 c 128,-1,33
 144 37 144 37 208 37 c 0,34,23
 274 37 274 37 313 112.5 c 128,-1,24
EndSplineSet
EndChar
StartChar: oe
Encoding: 339 339 181
Width: 632
GlyphClass: 2
Flags: W
AnchorPoint: "Anchor-1" 299 496 basechar 0
AnchorPoint: "Anchor-0" 299 0 basechar 0
LayerCount: 2
Fore
SplineSet
377.5 20.5 m 128,-1,1
 339 53 339 53 319 110 c 1,2,3
 298 50 298 50 258.5 19 c 128,-1,4
 219 -12 219 -12 175 -12 c 0,5,6
 130 -12 130 -12 91 16 c 128,-1,7
 52 44 52 44 28 102.5 c 128,-1,8
 4 161 4 161 4 247 c 256,9,10
 4 333 4 333 28.5 391.5 c 128,-1,11
 53 450 53 450 92.5 478 c 128,-1,12
 132 506 132 506 178 506 c 0,13,14
 226 506 226 506 265 475 c 128,-1,15
 304 444 304 444 325 382 c 1,16,17
 345 441 345 441 382 473.5 c 128,-1,18
 419 506 419 506 467 506 c 0,19,20
 520 506 520 506 556 473.5 c 128,-1,21
 592 441 592 441 610 388 c 128,-1,22
 628 335 628 335 628 273 c 0,23,24
 628 253 628 253 627 243 c 1,25,-1
 346 243 l 1,26,27
 346 167 346 167 365.5 120 c 128,-1,28
 385 73 385 73 413.5 53 c 128,-1,29
 442 33 442 33 472 33 c 256,30,31
 502 33 502 33 521.5 48.5 c 128,-1,32
 541 64 541 64 561 99 c 1,33,-1
 607 82 l 1,34,35
 559 -12 559 -12 471 -12 c 0,36,0
 416 -12 416 -12 377.5 20.5 c 128,-1,1
236.5 60 m 128,-1,38
 264 83 264 83 281 130.5 c 128,-1,39
 298 178 298 178 298 247 c 256,40,41
 298 316 298 316 281 363.5 c 128,-1,42
 264 411 264 411 236.5 434 c 128,-1,43
 209 457 209 457 176 457 c 0,44,45
 144 457 144 457 116.5 434 c 128,-1,46
 89 411 89 411 72.5 363.5 c 128,-1,47
 56 316 56 316 56 247 c 256,48,49
 56 178 56 178 72.5 130.5 c 128,-1,50
 89 83 89 83 116.5 60 c 128,-1,51
 144 37 144 37 176 37 c 0,52,37
 209 37 209 37 236.5 60 c 128,-1,38
547 408 m 128,-1,54
 521 461 521 461 467 461 c 0,55,56
 422 461 422 461 389.5 419 c 128,-1,57
 357 377 357 377 348 286 c 1,58,-1
 573 286 l 1,59,53
 573 355 573 355 547 408 c 128,-1,54
EndSplineSet
EndChar
StartChar: Scedilla
Encoding: 350 350 80
Width: 632
GlyphClass: 2
Flags: W
AnchorPoint: "Anchor-1" 316 668 basechar 0
LayerCount: 2
Fore
SplineSet
265.5 -170.5 m 128,-1,1
 243 -164 243 -164 226 -153 c 1,2,-1
 240 -128 l 1,3,4
 260 -138 260 -138 274.5 -141.5 c 128,-1,5
 289 -145 289 -145 305 -145 c 0,6,7
 330 -145 330 -145 341.5 -133 c 128,-1,8
 353 -121 353 -121 353 -107 c 0,9,10
 353 -77 353 -77 312 -77 c 0,11,12
 304 -77 304 -77 289 -80 c 128,-1,13
 274 -83 274 -83 270 -83 c 0,14,15
 256 -83 256 -83 256 -70 c 0,16,17
 256 -63 256 -63 261 -55 c 2,18,-1
 288 -11 l 1,19,20
 214 -5 214 -5 153 33 c 128,-1,21
 92 71 92 71 72 140 c 1,22,-1
 128 162 l 1,23,24
 146 101 146 101 198 69.5 c 128,-1,25
 250 38 250 38 315 38 c 0,26,27
 397 38 397 38 449.5 76 c 128,-1,28
 502 114 502 114 502 184 c 0,29,30
 502 231 502 231 469 260 c 128,-1,31
 436 289 436 289 350 311 c 2,32,-1
 256 335 l 2,33,34
 179 354 179 354 133.5 392.5 c 128,-1,35
 88 431 88 431 88 502 c 0,36,37
 88 553 88 553 117.5 593.5 c 128,-1,38
 147 634 147 634 199 657 c 128,-1,39
 251 680 251 680 315 680 c 0,40,41
 386 680 386 680 445.5 651 c 128,-1,42
 505 622 505 622 534 565 c 1,43,-1
 477 544 l 1,44,45
 456 584 456 584 410 607 c 128,-1,46
 364 630 364 630 316 630 c 0,47,48
 244 630 244 630 195.5 597 c 128,-1,49
 147 564 147 564 147 502 c 0,50,51
 147 458 147 458 180.5 430.5 c 128,-1,52
 214 403 214 403 268 390 c 2,53,-1
 364 365 l 2,54,55
 462 340 462 340 511.5 300 c 128,-1,56
 561 260 561 260 561 182 c 0,57,58
 561 125 561 125 529 82 c 128,-1,59
 497 39 497 39 443.5 14.5 c 128,-1,60
 390 -10 390 -10 325 -12 c 1,61,-1
 302 -48 l 1,62,63
 319 -44 319 -44 333 -44 c 0,64,65
 362 -44 362 -44 379 -60.5 c 128,-1,66
 396 -77 396 -77 396 -99 c 0,67,68
 396 -127 396 -127 372.5 -152 c 128,-1,69
 349 -177 349 -177 307 -177 c 0,70,0
 288 -177 288 -177 265.5 -170.5 c 128,-1,1
EndSplineSet
Substitution2: "'locl' Localized Forms in Latin lookup 4 subtable" uni0218
AlternateSubs2: "'aalt' Access All Alternates in Latin lookup 0 subtable" uni0218
EndChar
StartChar: scedilla
Encoding: 351 351 191
Width: 632
GlyphClass: 2
Flags: W
AnchorPoint: "Anchor-1" 314 496 basechar 0
LayerCount: 2
Fore
SplineSet
274.5 -170.5 m 128,-1,1
 252 -164 252 -164 235 -153 c 1,2,-1
 249 -128 l 1,3,4
 282 -145 282 -145 314 -145 c 0,5,6
 338 -145 338 -145 350 -132.5 c 128,-1,7
 362 -120 362 -120 362 -107 c 0,8,9
 362 -77 362 -77 321 -77 c 0,10,11
 313 -77 313 -77 298 -80 c 128,-1,12
 283 -83 283 -83 279 -83 c 0,13,14
 265 -83 265 -83 265 -70 c 0,15,16
 265 -63 265 -63 270 -55 c 2,17,-1
 297 -11 l 1,18,19
 232 -5 232 -5 180.5 26 c 128,-1,20
 129 57 129 57 109 112 c 1,21,-1
 164 133 l 1,22,23
 178 87 178 87 219.5 62 c 128,-1,24
 261 37 261 37 325 37 c 0,25,26
 393 37 393 37 431 63 c 128,-1,27
 469 89 469 89 469 130 c 0,28,29
 469 172 469 172 438 192.5 c 128,-1,30
 407 213 407 213 344 227 c 2,31,-1
 265 244 l 2,32,33
 195 258 195 258 159.5 287.5 c 128,-1,34
 124 317 124 317 124 371 c 0,35,36
 124 432 124 432 177.5 469 c 128,-1,37
 231 506 231 506 314 506 c 0,38,39
 384 506 384 506 434.5 480 c 128,-1,40
 485 454 485 454 505 407 c 1,41,-1
 452 386 l 1,42,43
 439 420 439 420 401.5 438.5 c 128,-1,44
 364 457 364 457 312 457 c 0,45,46
 253 457 253 457 215.5 435 c 128,-1,47
 178 413 178 413 178 374 c 0,48,49
 178 315 178 315 279 294 c 2,50,-1
 359 277 l 2,51,52
 443 259 443 259 483 227.5 c 128,-1,53
 523 196 523 196 523 134 c 0,54,55
 523 69 523 69 470 29.5 c 128,-1,56
 417 -10 417 -10 334 -12 c 1,57,-1
 311 -48 l 1,58,59
 328 -44 328 -44 342 -44 c 0,60,61
 371 -44 371 -44 388 -60.5 c 128,-1,62
 405 -77 405 -77 405 -99 c 0,63,64
 405 -127 405 -127 381.5 -152 c 128,-1,65
 358 -177 358 -177 316 -177 c 0,66,0
 297 -177 297 -177 274.5 -170.5 c 128,-1,1
EndSplineSet
Substitution2: "'locl' Localized Forms in Latin lookup 4 subtable" uni0219
AlternateSubs2: "'aalt' Access All Alternates in Latin lookup 0 subtable" uni0219
EndChar
StartChar: uni0162
Encoding: 354 354 85
Width: 632
GlyphClass: 2
Flags: W
AnchorPoint: "Anchor-1" 316 668 basechar 0
LayerCount: 2
Fore
SplineSet
287 618 m 1,0,-1
 63 618 l 1,1,-1
 63 668 l 1,2,-1
 569 668 l 1,3,-1
 569 618 l 1,4,-1
 345 618 l 1,5,-1
 345 0 l 1,6,-1
 335 0 l 1,7,-1
 304 -48 l 1,8,9
 321 -44 321 -44 335 -44 c 0,10,11
 364 -44 364 -44 381 -60.5 c 128,-1,12
 398 -77 398 -77 398 -99 c 0,13,14
 398 -127 398 -127 374.5 -152 c 128,-1,15
 351 -177 351 -177 309 -177 c 0,16,17
 290 -177 290 -177 267.5 -170.5 c 128,-1,18
 245 -164 245 -164 228 -153 c 1,19,-1
 242 -128 l 1,20,21
 262 -138 262 -138 276.5 -141.5 c 128,-1,22
 291 -145 291 -145 307 -145 c 0,23,24
 332 -145 332 -145 343.5 -133 c 128,-1,25
 355 -121 355 -121 355 -107 c 0,26,27
 355 -77 355 -77 314 -77 c 0,28,29
 306 -77 306 -77 291 -80 c 128,-1,30
 276 -83 276 -83 272 -83 c 0,31,32
 258 -83 258 -83 258 -70 c 0,33,34
 258 -63 258 -63 263 -55 c 2,35,-1
 297 0 l 1,36,-1
 287 0 l 1,37,-1
 287 618 l 1,0,-1
EndSplineSet
Substitution2: "'locl' Localized Forms in Latin lookup 4 subtable" uni021A
AlternateSubs2: "'aalt' Access All Alternates in Latin lookup 0 subtable" uni021A
EndChar
StartChar: Uring
Encoding: 366 366 95
Width: 632
GlyphClass: 2
Flags: W
AnchorPoint: "Anchor-3" 646 668 basechar 0
AnchorPoint: "Anchor-1" 316 872 basechar 0
LayerCount: 2
Fore
SplineSet
139.5 51.5 m 128,-1,1
 84 115 84 115 84 244 c 2,2,-1
 84 668 l 1,3,-1
 142 668 l 1,4,-1
 142 240 l 2,5,6
 142 138 142 138 184 88 c 128,-1,7
 226 38 226 38 315 38 c 0,8,9
 405 38 405 38 447.5 88 c 128,-1,10
 490 138 490 138 490 240 c 2,11,-1
 490 668 l 1,12,-1
 548 668 l 1,13,-1
 548 244 l 2,14,15
 548 115 548 115 492 51.5 c 128,-1,16
 436 -12 436 -12 315 -12 c 0,17,0
 195 -12 195 -12 139.5 51.5 c 128,-1,1
247.5 706 m 128,-1,19
 218 735 218 735 218 774 c 256,20,21
 218 813 218 813 247.5 842.5 c 128,-1,22
 277 872 277 872 319 872 c 0,23,24
 359 872 359 872 386 843 c 128,-1,25
 413 814 413 814 413 774 c 256,26,27
 413 734 413 734 386 705.5 c 128,-1,28
 359 677 359 677 319 677 c 0,29,18
 277 677 277 677 247.5 706 c 128,-1,19
355 736.5 m 128,-1,31
 371 752 371 752 371 774 c 256,32,33
 371 796 371 796 355 811.5 c 128,-1,34
 339 827 339 827 316 827 c 256,35,36
 293 827 293 827 277 811.5 c 128,-1,37
 261 796 261 796 261 774 c 256,38,39
 261 752 261 752 277 736.5 c 128,-1,40
 293 721 293 721 316 721 c 256,41,30
 339 721 339 721 355 736.5 c 128,-1,31
EndSplineSet
EndChar
StartChar: Uogonek
Encoding: 370 370 94
Width: 632
GlyphClass: 2
Flags: W
AnchorPoint: "Anchor-3" 646 668 basechar 0
AnchorPoint: "Anchor-1" 316 668 basechar 0
LayerCount: 2
Fore
SplineSet
365 -148 m 128,-1,1
 342 -128 342 -128 342 -94 c 0,2,3
 342 -47 342 -47 380 -6 c 1,4,5
 334 -12 334 -12 306 -12 c 0,6,7
 84 -12 84 -12 84 241 c 2,8,-1
 84 668 l 1,9,-1
 142 668 l 1,10,-1
 142 240 l 2,11,12
 142 138 142 138 184 88 c 128,-1,13
 226 38 226 38 315 38 c 0,14,15
 405 38 405 38 447.5 88 c 128,-1,16
 490 138 490 138 490 240 c 2,17,-1
 490 668 l 1,18,-1
 548 668 l 1,19,-1
 548 244 l 2,20,21
 548 158 548 158 523.5 101 c 128,-1,22
 499 44 499 44 446 14 c 0,23,24
 418 -3 418 -3 403.5 -27 c 128,-1,25
 389 -51 389 -51 389 -78 c 0,26,27
 389 -101 389 -101 405 -113.5 c 128,-1,28
 421 -126 421 -126 442 -126 c 0,29,30
 461 -126 461 -126 474 -119 c 1,31,-1
 474 -159 l 1,32,33
 452 -168 452 -168 425 -168 c 0,34,0
 388 -168 388 -168 365 -148 c 128,-1,1
EndSplineSet
EndChar
StartChar: florin
Encoding: 402 402 286
Width: 632
GlyphClass: 1
Flags: W
LayerCount: 2
Fore
SplineSet
96 -162 m 1,1,-1
 96 -112 l 1,2,3
 105 -118 105 -118 124.5 -122.5 c 128,-1,4
 144 -127 144 -127 164 -127 c 0,5,6
 224 -127 224 -127 255 -87.5 c 128,-1,7
 286 -48 286 -48 286 25 c 2,8,-1
 286 453 l 1,9,-1
 101 453 l 1,10,-1
 101 496 l 1,11,-1
 286 496 l 1,12,-1
 286 566 l 2,13,14
 286 621 286 621 291.5 646 c 128,-1,15
 297 671 297 671 319 683 c 128,-1,16
 341 695 341 695 390 695 c 2,17,-1
 536 695 l 1,18,-1
 536 648 l 1,19,-1
 379 648 l 2,20,21
 351 648 351 648 343.5 633.5 c 128,-1,22
 336 619 336 619 336 575 c 2,23,-1
 336 496 l 1,24,-1
 536 496 l 1,25,-1
 536 453 l 1,26,-1
 336 453 l 1,27,-1
 336 49 l 2,28,29
 336 -80 336 -80 286 -126 c 128,-1,30
 236 -172 236 -172 156 -172 c 0,31,0
 122 -172 122 -172 96 -162 c 1,1,-1
EndSplineSet
EndChar
StartChar: uni0237
Encoding: 567 567 159
Width: 632
GlyphClass: 2
Flags: W
AnchorPoint: "Anchor-1" 341 496 basechar 0
AnchorPoint: "Anchor-0" 341 -251 basechar 0
LayerCount: 2
Fore
SplineSet
99 -113 m 1,0,-1
 233 -113 l 2,1,2
 275 -113 275 -113 293.5 -105 c 128,-1,3
 312 -97 312 -97 318 -76.5 c 128,-1,4
 324 -56 324 -56 324 -11 c 2,5,-1
 324 451 l 1,6,-1
 170 451 l 1,7,-1
 170 496 l 1,8,-1
 380 496 l 1,9,-1
 380 -10 l 2,10,11
 380 -73 380 -73 370.5 -103.5 c 128,-1,12
 361 -134 361 -134 330 -148 c 128,-1,13
 299 -162 299 -162 233 -162 c 2,14,-1
 99 -162 l 1,15,-1
 99 -113 l 1,0,-1
EndSplineSet
EndChar
StartChar: gravecomb
Encoding: 768 768 340
Width: 0
GlyphClass: 4
Flags: W
AnchorPoint: "Anchor-5" 367 697 basemark 0
AnchorPoint: "Anchor-5" 367 496 mark 0
AnchorPoint: "Anchor-1" 367 496 mark 0
LayerCount: 2
Fore
SplineSet
252.5 650 m 128,-1,1
 246 658 246 658 246 670 c 0,2,3
 246 681 246 681 253.5 689 c 128,-1,4
 261 697 261 697 273 697 c 0,5,6
 284 697 284 697 292.5 690 c 128,-1,7
 301 683 301 683 314 666 c 2,8,-1
 387 569 l 1,9,-1
 339 569 l 1,10,-1
 282 620 l 2,11,0
 259 642 259 642 252.5 650 c 128,-1,1
EndSplineSet
Substitution2: "Single Substitution lookup 12 subtable" gravecomb.case
Substitution2: "'case' Case-Sensitive Forms in Latin lookup 9 subtable" gravecomb.case
AlternateSubs2: "'aalt' Access All Alternates in Latin lookup 0 subtable" gravecomb.case
EndChar
StartChar: acutecomb
Encoding: 769 769 342
Width: 0
GlyphClass: 4
Flags: W
AnchorPoint: "Anchor-5" 266 697 basemark 0
AnchorPoint: "Anchor-5" 266 496 mark 0
AnchorPoint: "Anchor-1" 266 496 mark 0
LayerCount: 2
Fore
SplineSet
340.5 690 m 128,-1,1
 349 697 349 697 360 697 c 0,2,3
 372 697 372 697 379.5 689 c 128,-1,4
 387 681 387 681 387 670 c 0,5,6
 387 658 387 658 380.5 650 c 128,-1,7
 374 642 374 642 351 620 c 2,8,-1
 294 569 l 1,9,-1
 246 569 l 1,10,-1
 319 666 l 2,11,0
 332 683 332 683 340.5 690 c 128,-1,1
EndSplineSet
Substitution2: "Single Substitution lookup 12 subtable" acutecomb.case
Substitution2: "'case' Case-Sensitive Forms in Latin lookup 9 subtable" acutecomb.case
AlternateSubs2: "'aalt' Access All Alternates in Latin lookup 0 subtable" acutecomb.case
EndChar
StartChar: tildecomb
Encoding: 771 771 355
Width: 0
GlyphClass: 4
Flags: W
AnchorPoint: "Anchor-5" 316 661 basemark 0
AnchorPoint: "Anchor-5" 316 496 mark 0
AnchorPoint: "Anchor-1" 316 496 mark 0
LayerCount: 2
Fore
SplineSet
346 581.5 m 128,-1,1
 331 587 331 587 312 598 c 0,2,3
 299 605 299 605 285.5 610.5 c 128,-1,4
 272 616 272 616 261 616 c 0,5,6
 243 616 243 616 231 605.5 c 128,-1,7
 219 595 219 595 217 577 c 1,8,-1
 176 577 l 1,9,10
 184 619 184 619 207 638.5 c 128,-1,11
 230 658 230 658 263 658 c 0,12,13
 280 658 280 658 294 652.5 c 128,-1,14
 308 647 308 647 326 637 c 0,15,16
 344 628 344 628 354.5 623.5 c 128,-1,17
 365 619 365 619 377 619 c 0,18,19
 392 619 392 619 400.5 625.5 c 128,-1,20
 409 632 409 632 417 645 c 0,21,22
 426 661 426 661 439 661 c 0,23,24
 446 661 446 661 451 656 c 128,-1,25
 456 651 456 651 456 641 c 0,26,27
 456 632 456 632 447 616 c 128,-1,28
 438 600 438 600 420.5 588 c 128,-1,29
 403 576 403 576 378 576 c 0,30,0
 361 576 361 576 346 581.5 c 128,-1,1
EndSplineSet
Substitution2: "Single Substitution lookup 12 subtable" tildecomb.case
Substitution2: "'case' Case-Sensitive Forms in Latin lookup 9 subtable" tildecomb.case
AlternateSubs2: "'aalt' Access All Alternates in Latin lookup 0 subtable" tildecomb.case
EndChar
StartChar: uni0306
Encoding: 774 774 351
Width: 0
GlyphClass: 4
Flags: W
AnchorPoint: "Anchor-5" 316 676 basemark 0
AnchorPoint: "Anchor-5" 316 496 mark 0
AnchorPoint: "Anchor-1" 316 496 mark 0
LayerCount: 2
Fore
SplineSet
240 600.5 m 128,-1,1
 209 629 209 629 200 671 c 1,2,-1
 241 671 l 1,3,4
 247 648 247 648 266.5 631 c 128,-1,5
 286 614 286 614 316 614 c 256,6,7
 346 614 346 614 365 630.5 c 128,-1,8
 384 647 384 647 391 671 c 1,9,-1
 432 671 l 1,10,11
 423 629 423 629 392 600.5 c 128,-1,12
 361 572 361 572 316 572 c 256,13,0
 271 572 271 572 240 600.5 c 128,-1,1
EndSplineSet
Substitution2: "Single Substitution lookup 12 subtable" uni0306.case
Substitution2: "'case' Case-Sensitive Forms in Latin lookup 9 subtable" uni0306.case
AlternateSubs2: "'aalt' Access All Alternates in Latin lookup 0 subtable" uni0306.case
EndChar
StartChar: uni0307
Encoding: 775 775 337
Width: 0
GlyphClass: 4
Flags: W
AnchorPoint: "Anchor-5" 316 688 basemark 0
AnchorPoint: "Anchor-5" 316 496 mark 0
AnchorPoint: "Anchor-1" 316 496 mark 0
LayerCount: 2
Fore
SplineSet
284 609.5 m 128,-1,1
 270 623 270 623 270 642 c 256,2,3
 270 661 270 661 284 674.5 c 128,-1,4
 298 688 298 688 316 688 c 256,5,6
 334 688 334 688 348 674.5 c 128,-1,7
 362 661 362 661 362 642 c 256,8,9
 362 623 362 623 348 609.5 c 128,-1,10
 334 596 334 596 316 596 c 256,11,0
 298 596 298 596 284 609.5 c 128,-1,1
EndSplineSet
Substitution2: "Single Substitution lookup 12 subtable" uni0307.case
Substitution2: "'case' Case-Sensitive Forms in Latin lookup 9 subtable" uni0307.case
AlternateSubs2: "'aalt' Access All Alternates in Latin lookup 0 subtable" uni0307.case
EndChar
StartChar: uni030A
Encoding: 778 778 353
Width: 0
GlyphClass: 4
Flags: W
AnchorPoint: "Anchor-5" 316 764 basemark 0
AnchorPoint: "Anchor-5" 316 496 mark 0
AnchorPoint: "Anchor-1" 316 496 mark 0
LayerCount: 2
Fore
SplineSet
248.5 600.5 m 128,-1,1
 220 629 220 629 220 668 c 256,2,3
 220 707 220 707 248.5 735.5 c 128,-1,4
 277 764 277 764 316 764 c 0,5,6
 356 764 356 764 384 735.5 c 128,-1,7
 412 707 412 707 412 668 c 256,8,9
 412 629 412 629 384 600.5 c 128,-1,10
 356 572 356 572 316 572 c 0,11,0
 277 572 277 572 248.5 600.5 c 128,-1,1
355 629 m 128,-1,13
 371 645 371 645 371 668 c 256,14,15
 371 691 371 691 355 707 c 128,-1,16
 339 723 339 723 316 723 c 0,17,18
 294 723 294 723 277.5 707 c 128,-1,19
 261 691 261 691 261 668 c 0,20,21
 261 646 261 646 277.5 629.5 c 128,-1,22
 294 613 294 613 316 613 c 0,23,12
 339 613 339 613 355 629 c 128,-1,13
EndSplineSet
Substitution2: "Single Substitution lookup 12 subtable" uni030A.case
Substitution2: "'case' Case-Sensitive Forms in Latin lookup 9 subtable" uni030A.case
AlternateSubs2: "'aalt' Access All Alternates in Latin lookup 0 subtable" uni030A.case
EndChar
StartChar: uni03A9
Encoding: 937 937 226
Width: 632
GlyphClass: 1
Flags: W
LayerCount: 2
Fore
SplineSet
29 49 m 1,0,-1
 199 49 l 1,1,-1
 199 115 l 1,2,3
 126 152 126 152 81.5 226 c 128,-1,4
 37 300 37 300 37 384 c 0,5,6
 37 466 37 466 74.5 533.5 c 128,-1,7
 112 601 112 601 176 640.5 c 128,-1,8
 240 680 240 680 316 680 c 256,9,10
 392 680 392 680 456 640.5 c 128,-1,11
 520 601 520 601 557.5 533.5 c 128,-1,12
 595 466 595 466 595 384 c 0,13,14
 595 300 595 300 550.5 226 c 128,-1,15
 506 152 506 152 433 115 c 1,16,-1
 433 49 l 1,17,-1
 603 49 l 1,18,-1
 603 0 l 1,19,-1
 383 0 l 1,20,-1
 383 149 l 1,21,22
 456 172 456 172 501 237 c 128,-1,23
 546 302 546 302 546 383 c 0,24,25
 546 452 546 452 515 508.5 c 128,-1,26
 484 565 484 565 431 598 c 128,-1,27
 378 631 378 631 316 631 c 256,28,29
 254 631 254 631 201 598 c 128,-1,30
 148 565 148 565 117 508.5 c 128,-1,31
 86 452 86 452 86 383 c 0,32,33
 86 302 86 302 131 237 c 128,-1,34
 176 172 176 172 249 149 c 1,35,-1
 249 0 l 1,36,-1
 29 0 l 1,37,-1
 29 49 l 1,0,-1
EndSplineSet
EndChar
StartChar: pi
Encoding: 960 960 228
Width: 632
GlyphClass: 1
Flags: W
LayerCount: 2
Fore
SplineSet
143 451 m 1,0,-1
 72 451 l 1,1,-1
 72 496 l 1,2,-1
 545 496 l 1,3,-1
 545 451 l 1,4,-1
 463 451 l 1,5,-1
 463 104 l 2,6,7
 463 79 463 79 466.5 67.5 c 128,-1,8
 470 56 470 56 480 52.5 c 128,-1,9
 490 49 490 49 512 49 c 2,10,-1
 545 49 l 1,11,-1
 545 0 l 1,12,-1
 507 0 l 2,13,14
 460 0 460 0 439.5 10 c 128,-1,15
 419 20 419 20 412.5 45.5 c 128,-1,16
 406 71 406 71 406 127 c 2,17,-1
 406 451 l 1,18,-1
 199 451 l 1,19,-1
 199 0 l 1,20,-1
 143 0 l 1,21,-1
 143 451 l 1,0,-1
EndSplineSet
EndChar
StartChar: quoteright
Encoding: 8217 8217 279
Width: 632
GlyphClass: 1
Flags: W
LayerCount: 2
Fore
SplineSet
278 590.5 m 128,-1,1
 264 605 264 605 264 627 c 256,2,3
 264 649 264 649 279.5 664.5 c 128,-1,4
 295 680 295 680 317 680 c 256,5,6
 339 680 339 680 354.5 664.5 c 128,-1,7
 370 649 370 649 370 627 c 0,8,9
 370 616 370 616 363 598 c 2,10,-1
 306 447 l 1,11,-1
 263 447 l 1,12,-1
 313 574 l 1,13,0
 292 576 292 576 278 590.5 c 128,-1,1
EndSplineSet
EndChar
StartChar: quotedblbase
Encoding: 8222 8222 275
Width: 632
GlyphClass: 1
Flags: W
LayerCount: 2
Fore
SplineSet
189 4.5 m 128,-1,1
 175 19 175 19 175 41 c 256,2,3
 175 63 175 63 190.5 78.5 c 128,-1,4
 206 94 206 94 228 94 c 256,5,6
 250 94 250 94 265.5 78.5 c 128,-1,7
 281 63 281 63 281 41 c 0,8,9
 281 30 281 30 274 12 c 2,10,-1
 217 -138 l 1,11,-1
 175 -138 l 1,12,-1
 224 -12 l 1,13,0
 203 -10 203 -10 189 4.5 c 128,-1,1
366 4.5 m 128,-1,15
 352 19 352 19 352 41 c 256,16,17
 352 63 352 63 367.5 78.5 c 128,-1,18
 383 94 383 94 405 94 c 256,19,20
 427 94 427 94 442.5 78.5 c 128,-1,21
 458 63 458 63 458 41 c 0,22,23
 458 30 458 30 451 12 c 2,24,-1
 393 -138 l 1,25,-1
 351 -138 l 1,26,-1
 400 -12 l 1,27,14
 380 -10 380 -10 366 4.5 c 128,-1,15
EndSplineSet
EndChar
StartChar: ellipsis
Encoding: 8230 8230 253
Width: 632
GlyphClass: 1
Flags: W
LayerCount: 2
Fore
SplineSet
68.5 3.5 m 128,-1,1
 53 19 53 19 53 41 c 0,2,3
 53 64 53 64 68.5 79 c 128,-1,4
 84 94 84 94 106 94 c 0,5,6
 129 94 129 94 144 79 c 128,-1,7
 159 64 159 64 159 41 c 0,8,9
 159 19 159 19 143.5 3.5 c 128,-1,10
 128 -12 128 -12 106 -12 c 256,11,0
 84 -12 84 -12 68.5 3.5 c 128,-1,1
278.5 3.5 m 128,-1,13
 263 19 263 19 263 41 c 0,14,15
 263 64 263 64 278.5 79 c 128,-1,16
 294 94 294 94 316 94 c 0,17,18
 339 94 339 94 354 79 c 128,-1,19
 369 64 369 64 369 41 c 0,20,21
 369 19 369 19 353.5 3.5 c 128,-1,22
 338 -12 338 -12 316 -12 c 256,23,12
 294 -12 294 -12 278.5 3.5 c 128,-1,13
488.5 3.5 m 128,-1,25
 473 19 473 19 473 41 c 0,26,27
 473 64 473 64 488.5 79 c 128,-1,28
 504 94 504 94 526 94 c 0,29,30
 549 94 549 94 564 79 c 128,-1,31
 579 64 579 64 579 41 c 0,32,33
 579 19 579 19 563.5 3.5 c 128,-1,34
 548 -12 548 -12 526 -12 c 256,35,24
 504 -12 504 -12 488.5 3.5 c 128,-1,25
EndSplineSet
EndChar
StartChar: perthousand
Encoding: 8240 8240 333
Width: 632
GlyphClass: 1
Flags: W
LayerCount: 2
Fore
SplineSet
96 430 m 128,-1,1
 65 448 65 448 46.5 479 c 128,-1,2
 28 510 28 510 28 547 c 256,3,4
 28 584 28 584 46.5 615 c 128,-1,5
 65 646 65 646 96 664 c 128,-1,6
 127 682 127 682 164 682 c 256,7,8
 201 682 201 682 232 664 c 128,-1,9
 263 646 263 646 281.5 615 c 128,-1,10
 300 584 300 584 300 547 c 256,11,12
 300 510 300 510 281.5 479 c 128,-1,13
 263 448 263 448 232 430 c 128,-1,14
 201 412 201 412 164 412 c 256,15,0
 127 412 127 412 96 430 c 128,-1,1
229 483 m 128,-1,17
 255 509 255 509 255 547 c 256,18,19
 255 585 255 585 229 611 c 128,-1,20
 203 637 203 637 164 637 c 0,21,22
 126 637 126 637 99.5 611 c 128,-1,23
 73 585 73 585 73 547 c 256,24,25
 73 509 73 509 99.5 483 c 128,-1,26
 126 457 126 457 164 457 c 0,27,16
 203 457 203 457 229 483 c 128,-1,17
96 4 m 128,-1,29
 65 22 65 22 46.5 53 c 128,-1,30
 28 84 28 84 28 121 c 256,31,32
 28 158 28 158 46.5 189 c 128,-1,33
 65 220 65 220 96 238 c 128,-1,34
 127 256 127 256 164 256 c 256,35,36
 201 256 201 256 232 238 c 128,-1,37
 263 220 263 220 281.5 189 c 128,-1,38
 300 158 300 158 300 121 c 256,39,40
 300 84 300 84 281.5 53 c 128,-1,41
 263 22 263 22 232 4 c 128,-1,42
 201 -14 201 -14 164 -14 c 256,43,28
 127 -14 127 -14 96 4 c 128,-1,29
229 57 m 128,-1,45
 255 83 255 83 255 121 c 256,46,47
 255 159 255 159 229 185 c 128,-1,48
 203 211 203 211 164 211 c 0,49,50
 126 211 126 211 99.5 185 c 128,-1,51
 73 159 73 159 73 121 c 256,52,53
 73 83 73 83 99.5 57 c 128,-1,54
 126 31 126 31 164 31 c 0,55,44
 203 31 203 31 229 57 c 128,-1,45
400 4 m 128,-1,57
 369 22 369 22 350.5 53 c 128,-1,58
 332 84 332 84 332 121 c 256,59,60
 332 158 332 158 350.5 189 c 128,-1,61
 369 220 369 220 400 238 c 128,-1,62
 431 256 431 256 468 256 c 256,63,64
 505 256 505 256 536 238 c 128,-1,65
 567 220 567 220 585.5 189 c 128,-1,66
 604 158 604 158 604 121 c 256,67,68
 604 84 604 84 585.5 53 c 128,-1,69
 567 22 567 22 536 4 c 128,-1,70
 505 -14 505 -14 468 -14 c 256,71,56
 431 -14 431 -14 400 4 c 128,-1,57
533 57 m 128,-1,73
 559 83 559 83 559 121 c 256,74,75
 559 159 559 159 533 185 c 128,-1,76
 507 211 507 211 468 211 c 0,77,78
 430 211 430 211 403.5 185 c 128,-1,79
 377 159 377 159 377 121 c 256,80,81
 377 83 377 83 403.5 57 c 128,-1,82
 430 31 430 31 468 31 c 0,83,72
 507 31 507 31 533 57 c 128,-1,73
34 313 m 1,84,-1
 599 515 l 1,85,-1
 599 467 l 1,86,-1
 34 264 l 1,87,-1
 34 313 l 1,84,-1
EndSplineSet
EndChar
StartChar: Euro
Encoding: 8364 8364 305
Width: 632
GlyphClass: 1
Flags: W
LayerCount: 2
Fore
SplineSet
195 56.5 m 128,-1,1
 131 126 131 126 113 245 c 1,2,-1
 28 245 l 1,3,-1
 48 284 l 1,4,-1
 109 284 l 1,5,6
 107 318 107 318 107 334 c 0,7,8
 107 351 107 351 109 383 c 1,9,-1
 28 383 l 1,10,-1
 48 422 l 1,11,-1
 114 422 l 1,12,13
 127 505 127 505 164.5 564 c 128,-1,14
 202 623 202 623 255.5 653 c 128,-1,15
 309 683 309 683 369 683 c 0,16,17
 442 683 442 683 501 643.5 c 128,-1,18
 560 604 560 604 590 530 c 1,19,-1
 541 511 l 1,20,21
 519 567 519 567 475.5 600 c 128,-1,22
 432 633 432 633 367 633 c 0,23,24
 287 633 287 633 234.5 580.5 c 128,-1,25
 182 528 182 528 167 422 c 1,26,-1
 433 422 l 1,27,-1
 413 383 l 1,28,-1
 163 383 l 1,29,30
 161 351 161 351 161 334 c 0,31,32
 161 318 161 318 163 284 c 1,33,-1
 370 284 l 1,34,-1
 350 245 l 1,35,-1
 169 245 l 1,36,37
 186 152 186 152 237 94.5 c 128,-1,38
 288 37 288 37 365 37 c 0,39,40
 432 37 432 37 476 69.5 c 128,-1,41
 520 102 520 102 545 156 c 1,42,-1
 593 137 l 1,43,44
 562 62 562 62 502 24.5 c 128,-1,45
 442 -13 442 -13 363 -13 c 0,46,0
 259 -13 259 -13 195 56.5 c 128,-1,1
EndSplineSet
EndChar
StartChar: trademark
Encoding: 8482 8482 294
Width: 632
GlyphClass: 1
Flags: W
LayerCount: 2
Fore
SplineSet
103 630 m 1,0,-1
 12 630 l 1,1,-1
 12 668 l 1,2,-1
 238 668 l 1,3,-1
 238 630 l 1,4,-1
 147 630 l 1,5,-1
 147 343 l 1,6,-1
 103 343 l 1,7,-1
 103 630 l 1,0,-1
290 668 m 1,8,-1
 356 668 l 1,9,-1
 453 398 l 1,10,-1
 457 398 l 1,11,-1
 552 668 l 1,12,-1
 619 668 l 1,13,-1
 619 343 l 1,14,-1
 575 343 l 1,15,-1
 575 613 l 1,16,-1
 571 613 l 1,17,-1
 475 343 l 1,18,-1
 434 343 l 1,19,-1
 336 613 l 1,20,-1
 332 613 l 1,21,-1
 332 343 l 1,22,-1
 290 343 l 1,23,-1
 290 668 l 1,8,-1
EndSplineSet
EndChar
StartChar: partialdiff
Encoding: 8706 8706 331
Width: 632
GlyphClass: 1
Flags: W
LayerCount: 2
Fore
SplineSet
210 15 m 128,-1,1
 156 42 156 42 121 100.5 c 128,-1,2
 86 159 86 159 86 246 c 0,3,4
 86 332 86 332 119.5 389 c 128,-1,5
 153 446 153 446 205 472.5 c 128,-1,6
 257 499 257 499 312 499 c 0,7,8
 375 499 375 499 421.5 470 c 128,-1,9
 468 441 468 441 487 388 c 1,10,11
 477 480 477 480 424.5 535.5 c 128,-1,12
 372 591 372 591 302 612 c 128,-1,13
 232 633 232 633 163 628 c 1,14,-1
 163 680 l 1,15,16
 320 680 320 680 404.5 622 c 128,-1,17
 489 564 489 564 517.5 475.5 c 128,-1,18
 546 387 546 387 546 273 c 0,19,20
 546 162 546 162 509 98.5 c 128,-1,21
 472 35 472 35 421 11.5 c 128,-1,22
 370 -12 370 -12 320 -12 c 0,23,0
 264 -12 264 -12 210 15 c 128,-1,1
398.5 58.5 m 128,-1,25
 437 79 437 79 462 125.5 c 128,-1,26
 487 172 487 172 487 244 c 0,27,28
 487 314 487 314 462 360 c 128,-1,29
 437 406 437 406 398 427 c 128,-1,30
 359 448 359 448 316 448 c 256,31,32
 273 448 273 448 234 427 c 128,-1,33
 195 406 195 406 170 360 c 128,-1,34
 145 314 145 314 145 244 c 0,35,36
 145 172 145 172 170 126 c 128,-1,37
 195 80 195 80 234 59 c 128,-1,38
 273 38 273 38 316 38 c 0,39,24
 360 38 360 38 398.5 58.5 c 128,-1,25
EndSplineSet
EndChar
StartChar: summation
Encoding: 8721 8721 329
Width: 632
GlyphClass: 1
Flags: W
LayerCount: 2
Fore
SplineSet
89 -105 m 1,0,-1
 339 253 l 1,1,-1
 89 611 l 1,2,-1
 89 668 l 1,3,-1
 543 668 l 1,4,-1
 543 611 l 1,5,-1
 156 611 l 1,6,-1
 404 253 l 1,7,-1
 156 -105 l 1,8,-1
 543 -105 l 1,9,-1
 543 -162 l 1,10,-1
 89 -162 l 1,11,-1
 89 -105 l 1,0,-1
EndSplineSet
EndChar
StartChar: infinity
Encoding: 8734 8734 326
Width: 632
GlyphClass: 1
Flags: W
LayerCount: 2
Fore
SplineSet
48.5 150.5 m 128,-1,1
 13 191 13 191 13 256 c 256,2,3
 13 321 13 321 48.5 361.5 c 128,-1,4
 84 402 84 402 149 402 c 0,5,6
 195 402 195 402 232 376.5 c 128,-1,7
 269 351 269 351 316 300 c 1,8,9
 363 351 363 351 400 376.5 c 128,-1,10
 437 402 437 402 483 402 c 0,11,12
 548 402 548 402 583.5 361.5 c 128,-1,13
 619 321 619 321 619 256 c 256,14,15
 619 191 619 191 583.5 150.5 c 128,-1,16
 548 110 548 110 483 110 c 0,17,18
 437 110 437 110 400 135.5 c 128,-1,19
 363 161 363 161 316 212 c 1,20,21
 269 161 269 161 232 135.5 c 128,-1,22
 195 110 195 110 149 110 c 0,23,0
 84 110 84 110 48.5 150.5 c 128,-1,1
211 179 m 128,-1,25
 238 198 238 198 285 256 c 1,26,27
 238 314 238 314 211 333 c 128,-1,28
 184 352 184 352 150 352 c 0,29,30
 112 352 112 352 87.5 324 c 128,-1,31
 63 296 63 296 63 256 c 256,32,33
 63 216 63 216 87.5 188 c 128,-1,34
 112 160 112 160 150 160 c 0,35,24
 184 160 184 160 211 179 c 128,-1,25
544.5 188 m 128,-1,37
 569 216 569 216 569 256 c 256,38,39
 569 296 569 296 544.5 324 c 128,-1,40
 520 352 520 352 482 352 c 0,41,42
 448 352 448 352 421 333 c 128,-1,43
 394 314 394 314 347 256 c 1,44,45
 394 198 394 198 421 179 c 128,-1,46
 448 160 448 160 482 160 c 0,47,36
 520 160 520 160 544.5 188 c 128,-1,37
EndSplineSet
EndChar
StartChar: integral
Encoding: 8747 8747 327
Width: 632
GlyphClass: 1
Flags: W
LayerCount: 2
Fore
SplineSet
173 -156.5 m 128,-1,1
 153 -141 153 -141 153 -118 c 0,2,3
 153 -100 153 -100 166 -87 c 128,-1,4
 179 -74 179 -74 199 -74 c 0,5,6
 221 -74 221 -74 234.5 -87 c 128,-1,7
 248 -100 248 -100 248 -122 c 0,8,9
 248 -131 248 -131 245 -138 c 1,10,11
 260 -137 260 -137 272 -116 c 128,-1,12
 284 -95 284 -95 285 -41 c 2,13,-1
 289 502 l 2,14,15
 290 606 290 606 320.5 644 c 128,-1,16
 351 682 351 682 405 682 c 0,17,18
 440 682 440 682 460 666.5 c 128,-1,19
 480 651 480 651 480 628 c 0,20,21
 480 610 480 610 467.5 597 c 128,-1,22
 455 584 455 584 434 584 c 0,23,24
 412 584 412 584 398.5 597 c 128,-1,25
 385 610 385 610 385 632 c 0,26,27
 385 641 385 641 388 648 c 1,28,29
 373 647 373 647 361 626 c 128,-1,30
 349 605 349 605 348 550 c 2,31,-1
 344 8 l 2,32,33
 343 -96 343 -96 312.5 -134 c 128,-1,34
 282 -172 282 -172 228 -172 c 0,35,0
 193 -172 193 -172 173 -156.5 c 128,-1,1
EndSplineSet
EndChar
StartChar: approxequal
Encoding: 8776 8776 322
Width: 632
GlyphClass: 1
Flags: W
LayerCount: 2
Fore
SplineSet
112.5 194 m 128,-1,1
 143 224 143 224 198 224 c 0,2,3
 225 224 225 224 254 215 c 128,-1,4
 283 206 283 206 327 189 c 0,5,6
 367 174 367 174 391 166.5 c 128,-1,7
 415 159 415 159 436 159 c 0,8,9
 499 159 499 159 507 230 c 1,10,-1
 557 220 l 1,11,12
 550 168 550 168 519.5 138 c 128,-1,13
 489 108 489 108 434 108 c 0,14,15
 407 108 407 108 378 117 c 128,-1,16
 349 126 349 126 305 143 c 0,17,18
 265 158 265 158 241 165.5 c 128,-1,19
 217 173 217 173 196 173 c 0,20,21
 133 173 133 173 125 102 c 1,22,-1
 75 112 l 1,23,0
 82 164 82 164 112.5 194 c 128,-1,1
112.5 381 m 128,-1,25
 143 411 143 411 198 411 c 0,26,27
 225 411 225 411 254 402 c 128,-1,28
 283 393 283 393 327 376 c 0,29,30
 367 361 367 361 391 353.5 c 128,-1,31
 415 346 415 346 436 346 c 0,32,33
 499 346 499 346 507 417 c 1,34,-1
 557 406 l 1,35,36
 550 354 550 354 519.5 324 c 128,-1,37
 489 294 489 294 434 294 c 0,38,39
 407 294 407 294 378 303 c 128,-1,40
 349 312 349 312 305 329 c 0,41,42
 265 344 265 344 241 351.5 c 128,-1,43
 217 359 217 359 196 359 c 0,44,45
 133 359 133 359 125 288 c 1,46,-1
 75 299 l 1,47,24
 82 351 82 351 112.5 381 c 128,-1,25
EndSplineSet
EndChar
StartChar: lessequal
Encoding: 8804 8804 320
Width: 632
GlyphClass: 1
Flags: W
LayerCount: 2
Fore
SplineSet
89 266 m 1,0,-1
 89 317 l 1,1,-1
 543 484 l 1,2,-1
 543 421 l 1,3,-1
 169 291 l 1,4,-1
 543 162 l 1,5,-1
 543 101 l 1,6,-1
 89 266 l 1,0,-1
89 55 m 1,7,-1
 543 55 l 1,8,-1
 543 0 l 1,9,-1
 89 0 l 1,10,-1
 89 55 l 1,7,-1
EndSplineSet
EndChar
StartChar: lozenge
Encoding: 9674 9674 334
Width: 632
GlyphClass: 1
Flags: W
LayerCount: 2
Fore
SplineSet
106 316 m 1,0,-1
 317 696 l 1,1,-1
 526 316 l 1,2,-1
 317 -64 l 1,3,-1
 106 316 l 1,0,-1
464 316 m 1,4,-1
 317 580 l 1,5,-1
 167 316 l 1,6,-1
 317 52 l 1,7,-1
 464 316 l 1,4,-1
EndSplineSet
EndChar
StartChar: uni0307.case
Encoding: 65541 -1 338
Width: 0
GlyphClass: 4
Flags: W
AnchorPoint: "Anchor-5" 316 828 basemark 0
AnchorPoint: "Anchor-5" 316 668 mark 0
AnchorPoint: "Anchor-1" 316 668 mark 0
LayerCount: 2
Fore
SplineSet
284 750.5 m 128,-1,1
 270 764 270 764 270 782 c 0,2,3
 270 801 270 801 284 814.5 c 128,-1,4
 298 828 298 828 316 828 c 256,5,6
 334 828 334 828 348 814.5 c 128,-1,7
 362 801 362 801 362 782 c 0,8,9
 362 764 362 764 348 750.5 c 128,-1,10
 334 737 334 737 316 737 c 256,11,0
 298 737 298 737 284 750.5 c 128,-1,1
EndSplineSet
EndChar
StartChar: uni0307.large
Encoding: 65542 -1 339
Width: 0
GlyphClass: 4
Flags: W
AnchorPoint: "Anchor-5" 316 697 basemark 0
AnchorPoint: "Anchor-5" 316 496 mark 0
AnchorPoint: "Anchor-1" 316 496 mark 0
LayerCount: 2
Fore
SplineSet
281.5 613.5 m 128,-1,1
 267 628 267 628 267 647 c 0,2,3
 267 667 267 667 281.5 681.5 c 128,-1,4
 296 696 296 696 316 696 c 256,5,6
 336 696 336 696 350.5 681.5 c 128,-1,7
 365 667 365 667 365 647 c 0,8,9
 365 628 365 628 350.5 613.5 c 128,-1,10
 336 599 336 599 316 599 c 256,11,0
 296 599 296 599 281.5 613.5 c 128,-1,1
EndSplineSet
EndChar
StartChar: uni030A.case
Encoding: 65550 -1 354
Width: 0
GlyphClass: 4
Flags: W
AnchorPoint: "Anchor-5" 316 836 basemark 0
AnchorPoint: "Anchor-5" 316 668 mark 0
AnchorPoint: "Anchor-1" 316 668 mark 0
LayerCount: 2
Fore
SplineSet
248.5 672 m 128,-1,1
 220 700 220 700 220 740 c 0,2,3
 220 779 220 779 248.5 807.5 c 128,-1,4
 277 836 277 836 316 836 c 0,5,6
 356 836 356 836 384 807.5 c 128,-1,7
 412 779 412 779 412 740 c 0,8,9
 412 700 412 700 384 672 c 128,-1,10
 356 644 356 644 316 644 c 0,11,0
 277 644 277 644 248.5 672 c 128,-1,1
355 701 m 128,-1,13
 371 717 371 717 371 740 c 256,14,15
 371 763 371 763 355 779 c 128,-1,16
 339 795 339 795 316 795 c 0,17,18
 294 795 294 795 277.5 779 c 128,-1,19
 261 763 261 763 261 740 c 0,20,21
 261 718 261 718 277.5 701.5 c 128,-1,22
 294 685 294 685 316 685 c 0,23,12
 339 685 339 685 355 701 c 128,-1,13
EndSplineSet
EndChar
StartChar: uni0328.case
Encoding: 65554 -1 363
Width: 0
GlyphClass: 4
Flags: W
AnchorPoint: "Anchor-2" 382 10 mark 0
LayerCount: 2
Fore
SplineSet
273 -148 m 128,-1,1
 250 -128 250 -128 250 -94 c 0,2,3
 250 -30 250 -30 330 10 c 1,4,-1
 382 0 l 1,5,6
 343 -13 343 -13 320 -35.5 c 128,-1,7
 297 -58 297 -58 297 -84 c 0,8,9
 297 -105 297 -105 311.5 -115.5 c 128,-1,10
 326 -126 326 -126 347 -126 c 0,11,12
 363 -126 363 -126 382 -119 c 1,13,-1
 382 -159 l 1,14,15
 368 -165 368 -165 357.5 -166.5 c 128,-1,16
 347 -168 347 -168 333 -168 c 0,17,0
 296 -168 296 -168 273 -148 c 128,-1,1
EndSplineSet
EndChar
